<mxfile host="app.diagrams.net" agent="Mozilla/5.0 (Windows NT 10.0; Win64; x64) AppleWebKit/537.36 (KHTML, like Gecko) Chrome/140.0.0.0 Safari/537.36 Edg/140.0.0.0" version="28.2.5">
  <diagram name="신호제어로직-하선" id="1N40QUafEp-obqcBCs5r">
    <mxGraphModel dx="753" dy="778" grid="1" gridSize="10" guides="1" tooltips="1" connect="1" arrows="1" fold="1" page="1" pageScale="1" pageWidth="827" pageHeight="1169" math="0" shadow="0">
      <root>
        <mxCell id="0" />
        <mxCell id="1" parent="0" />
        <mxCell id="oqFgftesJ9Iaq0mxswxZ-5" value="C" style="endArrow=none;html=1;rounded=0;" edge="1" parent="1">
          <mxGeometry width="50" height="50" relative="1" as="geometry">
            <mxPoint x="195" y="392" as="sourcePoint" />
            <mxPoint x="1007" y="392" as="targetPoint" />
          </mxGeometry>
        </mxCell>
        <mxCell id="oqFgftesJ9Iaq0mxswxZ-6" value="GNU" style="text;html=1;strokeColor=none;fillColor=none;align=center;verticalAlign=middle;whiteSpace=wrap;rounded=0;fontFamily=Helvetica;fontSize=11;fontColor=default;" vertex="1" parent="1">
          <mxGeometry x="231" y="368" width="40" height="11" as="geometry" />
        </mxCell>
        <mxCell id="oqFgftesJ9Iaq0mxswxZ-7" value="" style="endArrow=none;html=1;rounded=0;" edge="1" parent="1">
          <mxGeometry width="50" height="50" relative="1" as="geometry">
            <mxPoint x="194" y="1954" as="sourcePoint" />
            <mxPoint x="194" y="367" as="targetPoint" />
          </mxGeometry>
        </mxCell>
        <mxCell id="oqFgftesJ9Iaq0mxswxZ-8" value="GLMR-M" style="text;html=1;strokeColor=none;fillColor=none;align=center;verticalAlign=middle;whiteSpace=wrap;rounded=0;fontFamily=Helvetica;fontSize=11;fontColor=default;" vertex="1" parent="1">
          <mxGeometry x="284" y="368" width="47" height="11" as="geometry" />
        </mxCell>
        <mxCell id="oqFgftesJ9Iaq0mxswxZ-9" value="GLMR-A" style="text;html=1;strokeColor=none;fillColor=none;align=center;verticalAlign=middle;whiteSpace=wrap;rounded=0;fontFamily=Helvetica;fontSize=11;fontColor=default;" vertex="1" parent="1">
          <mxGeometry x="341" y="368" width="47" height="11" as="geometry" />
        </mxCell>
        <mxCell id="oqFgftesJ9Iaq0mxswxZ-10" value="GEU" style="text;html=1;strokeColor=none;fillColor=none;align=center;verticalAlign=middle;whiteSpace=wrap;rounded=0;fontFamily=Helvetica;fontSize=11;fontColor=default;" vertex="1" parent="1">
          <mxGeometry x="399" y="368" width="40" height="11" as="geometry" />
        </mxCell>
        <mxCell id="oqFgftesJ9Iaq0mxswxZ-11" value="YLMR-M" style="text;html=1;strokeColor=none;fillColor=none;align=center;verticalAlign=middle;whiteSpace=wrap;rounded=0;fontFamily=Helvetica;fontSize=11;fontColor=default;" vertex="1" parent="1">
          <mxGeometry x="452" y="368" width="47" height="11" as="geometry" />
        </mxCell>
        <mxCell id="oqFgftesJ9Iaq0mxswxZ-12" value="YLMR-A" style="text;html=1;strokeColor=none;fillColor=none;align=center;verticalAlign=middle;whiteSpace=wrap;rounded=0;fontFamily=Helvetica;fontSize=11;fontColor=default;" vertex="1" parent="1">
          <mxGeometry x="508" y="369" width="47" height="12" as="geometry" />
        </mxCell>
        <mxCell id="oqFgftesJ9Iaq0mxswxZ-13" value="GE1U" style="text;html=1;strokeColor=none;fillColor=none;align=center;verticalAlign=middle;whiteSpace=wrap;rounded=0;fontFamily=Helvetica;fontSize=11;fontColor=default;" vertex="1" parent="1">
          <mxGeometry x="679" y="371" width="40" height="10" as="geometry" />
        </mxCell>
        <mxCell id="oqFgftesJ9Iaq0mxswxZ-14" value="BL2" style="text;html=1;strokeColor=none;fillColor=none;align=center;verticalAlign=middle;whiteSpace=wrap;rounded=0;fontFamily=Helvetica;fontSize=11;fontColor=default;" vertex="1" parent="1">
          <mxGeometry x="731" y="370" width="47" height="9" as="geometry" />
        </mxCell>
        <mxCell id="oqFgftesJ9Iaq0mxswxZ-15" value="BL1" style="text;html=1;strokeColor=none;fillColor=none;align=center;verticalAlign=middle;whiteSpace=wrap;rounded=0;fontFamily=Helvetica;fontSize=11;fontColor=default;" vertex="1" parent="1">
          <mxGeometry x="788" y="370" width="47" height="10" as="geometry" />
        </mxCell>
        <mxCell id="oqFgftesJ9Iaq0mxswxZ-16" value="PR.AR" style="text;html=1;strokeColor=none;fillColor=none;align=center;verticalAlign=middle;whiteSpace=wrap;rounded=0;fontFamily=Helvetica;fontSize=11;fontColor=default;" vertex="1" parent="1">
          <mxGeometry x="232" y="424" width="40" height="11" as="geometry" />
        </mxCell>
        <mxCell id="oqFgftesJ9Iaq0mxswxZ-17" value="PR" style="text;html=1;strokeColor=none;fillColor=none;align=center;verticalAlign=middle;whiteSpace=wrap;rounded=0;fontFamily=Helvetica;fontSize=11;fontColor=default;" vertex="1" parent="1">
          <mxGeometry x="951" y="432" width="47" height="13" as="geometry" />
        </mxCell>
        <mxCell id="oqFgftesJ9Iaq0mxswxZ-18" value="EMS" style="text;html=1;strokeColor=none;fillColor=none;align=center;verticalAlign=middle;whiteSpace=wrap;rounded=0;fontFamily=Helvetica;fontSize=11;fontColor=default;" vertex="1" parent="1">
          <mxGeometry x="231" y="480" width="40" height="13" as="geometry" />
        </mxCell>
        <mxCell id="oqFgftesJ9Iaq0mxswxZ-19" value="TR" style="text;html=1;strokeColor=none;fillColor=none;align=center;verticalAlign=middle;whiteSpace=wrap;rounded=0;fontFamily=Helvetica;fontSize=11;fontColor=default;" vertex="1" parent="1">
          <mxGeometry x="283" y="480" width="47" height="13" as="geometry" />
        </mxCell>
        <mxCell id="oqFgftesJ9Iaq0mxswxZ-20" value="DIR" style="text;html=1;strokeColor=none;fillColor=none;align=center;verticalAlign=middle;whiteSpace=wrap;rounded=0;fontFamily=Helvetica;fontSize=11;fontColor=default;" vertex="1" parent="1">
          <mxGeometry x="340" y="480" width="47" height="13" as="geometry" />
        </mxCell>
        <mxCell id="oqFgftesJ9Iaq0mxswxZ-21" value="FP" style="text;html=1;strokeColor=none;fillColor=none;align=center;verticalAlign=middle;whiteSpace=wrap;rounded=0;fontFamily=Helvetica;fontSize=11;fontColor=default;" vertex="1" parent="1">
          <mxGeometry x="456" y="480" width="40" height="13" as="geometry" />
        </mxCell>
        <mxCell id="oqFgftesJ9Iaq0mxswxZ-22" value="FP1" style="text;html=1;strokeColor=none;fillColor=none;align=center;verticalAlign=middle;whiteSpace=wrap;rounded=0;fontFamily=Helvetica;fontSize=11;fontColor=default;" vertex="1" parent="1">
          <mxGeometry x="508" y="480" width="47" height="13" as="geometry" />
        </mxCell>
        <mxCell id="oqFgftesJ9Iaq0mxswxZ-23" value="FP2" style="text;html=1;strokeColor=none;fillColor=none;align=center;verticalAlign=middle;whiteSpace=wrap;rounded=0;fontFamily=Helvetica;fontSize=11;fontColor=default;" vertex="1" parent="1">
          <mxGeometry x="564" y="479" width="47" height="14" as="geometry" />
        </mxCell>
        <mxCell id="oqFgftesJ9Iaq0mxswxZ-24" value="FP3" style="text;html=1;strokeColor=none;fillColor=none;align=center;verticalAlign=middle;whiteSpace=wrap;rounded=0;fontFamily=Helvetica;fontSize=11;fontColor=default;" vertex="1" parent="1">
          <mxGeometry x="624" y="480" width="40" height="13" as="geometry" />
        </mxCell>
        <mxCell id="oqFgftesJ9Iaq0mxswxZ-25" value="&lt;font style=&quot;font-size: 10px;&quot;&gt;BL1.AR(0)&lt;/font&gt;" style="text;html=1;strokeColor=none;fillColor=none;align=center;verticalAlign=middle;whiteSpace=wrap;rounded=0;fontFamily=Helvetica;fontSize=11;fontColor=default;" vertex="1" parent="1">
          <mxGeometry x="942" y="478" width="47" height="12" as="geometry" />
        </mxCell>
        <mxCell id="oqFgftesJ9Iaq0mxswxZ-26" value="" style="endArrow=none;html=1;rounded=0;" edge="1" parent="1">
          <mxGeometry width="50" height="50" relative="1" as="geometry">
            <mxPoint x="419" y="505" as="sourcePoint" />
            <mxPoint x="699" y="505" as="targetPoint" />
            <Array as="points">
              <mxPoint x="419" y="547" />
              <mxPoint x="699" y="547" />
            </Array>
          </mxGeometry>
        </mxCell>
        <mxCell id="oqFgftesJ9Iaq0mxswxZ-27" value="BL1" style="text;html=1;strokeColor=none;fillColor=none;align=center;verticalAlign=middle;whiteSpace=wrap;rounded=0;fontFamily=Helvetica;fontSize=11;fontColor=default;" vertex="1" parent="1">
          <mxGeometry x="452" y="525" width="47" height="10" as="geometry" />
        </mxCell>
        <mxCell id="oqFgftesJ9Iaq0mxswxZ-28" value="BL1.RR" style="text;html=1;strokeColor=none;fillColor=none;align=center;verticalAlign=middle;whiteSpace=wrap;rounded=0;fontFamily=Helvetica;fontSize=11;fontColor=default;" vertex="1" parent="1">
          <mxGeometry x="288" y="560" width="40" height="17" as="geometry" />
        </mxCell>
        <mxCell id="oqFgftesJ9Iaq0mxswxZ-29" value="CPT" style="text;html=1;strokeColor=none;fillColor=none;align=center;verticalAlign=middle;whiteSpace=wrap;rounded=0;fontFamily=Helvetica;fontSize=11;fontColor=default;" vertex="1" parent="1">
          <mxGeometry x="455" y="564" width="40" height="14" as="geometry" />
        </mxCell>
        <mxCell id="oqFgftesJ9Iaq0mxswxZ-30" value="전방.T-SW" style="text;html=1;strokeColor=none;fillColor=none;align=center;verticalAlign=middle;whiteSpace=wrap;rounded=0;fontFamily=Helvetica;fontSize=11;fontColor=default;" vertex="1" parent="1">
          <mxGeometry x="557" y="563" width="62" height="15" as="geometry" />
        </mxCell>
        <mxCell id="oqFgftesJ9Iaq0mxswxZ-31" value="BL1" style="text;html=1;strokeColor=none;fillColor=none;align=center;verticalAlign=middle;whiteSpace=wrap;rounded=0;fontFamily=Helvetica;fontSize=11;fontColor=default;" vertex="1" parent="1">
          <mxGeometry x="952" y="571" width="47" height="13" as="geometry" />
        </mxCell>
        <mxCell id="oqFgftesJ9Iaq0mxswxZ-32" value="" style="endArrow=none;html=1;rounded=0;" edge="1" parent="1">
          <mxGeometry width="50" height="50" relative="1" as="geometry">
            <mxPoint x="419" y="589" as="sourcePoint" />
            <mxPoint x="531" y="589" as="targetPoint" />
            <Array as="points">
              <mxPoint x="419" y="631" />
              <mxPoint x="531" y="631" />
            </Array>
          </mxGeometry>
        </mxCell>
        <mxCell id="oqFgftesJ9Iaq0mxswxZ-33" value="ECPT" style="text;html=1;strokeColor=none;fillColor=none;align=center;verticalAlign=middle;whiteSpace=wrap;rounded=0;fontFamily=Helvetica;fontSize=11;fontColor=default;" vertex="1" parent="1">
          <mxGeometry x="452" y="608" width="47" height="12" as="geometry" />
        </mxCell>
        <mxCell id="oqFgftesJ9Iaq0mxswxZ-34" value="TR" style="text;html=1;strokeColor=none;fillColor=none;align=center;verticalAlign=middle;whiteSpace=wrap;rounded=0;fontFamily=Helvetica;fontSize=11;fontColor=default;" vertex="1" parent="1">
          <mxGeometry x="231" y="647" width="40" height="14" as="geometry" />
        </mxCell>
        <mxCell id="oqFgftesJ9Iaq0mxswxZ-35" value="DIR" style="text;html=1;strokeColor=none;fillColor=none;align=center;verticalAlign=middle;whiteSpace=wrap;rounded=0;fontFamily=Helvetica;fontSize=11;fontColor=default;" vertex="1" parent="1">
          <mxGeometry x="287" y="647" width="40" height="16" as="geometry" />
        </mxCell>
        <mxCell id="oqFgftesJ9Iaq0mxswxZ-36" value="FMPR.AR" style="text;html=1;strokeColor=none;fillColor=none;align=center;verticalAlign=middle;whiteSpace=wrap;rounded=0;fontFamily=Helvetica;fontSize=11;fontColor=default;" vertex="1" parent="1">
          <mxGeometry x="230" y="701" width="40" height="16" as="geometry" />
        </mxCell>
        <mxCell id="oqFgftesJ9Iaq0mxswxZ-37" value="FMPR" style="text;html=1;strokeColor=none;fillColor=none;align=center;verticalAlign=middle;whiteSpace=wrap;rounded=0;fontFamily=Helvetica;fontSize=11;fontColor=default;" vertex="1" parent="1">
          <mxGeometry x="952" y="710" width="47" height="13" as="geometry" />
        </mxCell>
        <mxCell id="oqFgftesJ9Iaq0mxswxZ-38" value="FMPR.RR" style="text;html=1;strokeColor=none;fillColor=none;align=center;verticalAlign=middle;whiteSpace=wrap;rounded=0;fontFamily=Helvetica;fontSize=11;fontColor=default;" vertex="1" parent="1">
          <mxGeometry x="285" y="701" width="47" height="17" as="geometry" />
        </mxCell>
        <mxCell id="oqFgftesJ9Iaq0mxswxZ-39" value="TR" style="text;html=1;strokeColor=none;fillColor=none;align=center;verticalAlign=middle;whiteSpace=wrap;rounded=0;fontFamily=Helvetica;fontSize=11;fontColor=default;" vertex="1" parent="1">
          <mxGeometry x="232" y="785" width="40" height="17" as="geometry" />
        </mxCell>
        <mxCell id="oqFgftesJ9Iaq0mxswxZ-40" value="DIR" style="text;html=1;strokeColor=none;fillColor=none;align=center;verticalAlign=middle;whiteSpace=wrap;rounded=0;fontFamily=Helvetica;fontSize=11;fontColor=default;" vertex="1" parent="1">
          <mxGeometry x="287" y="787" width="40" height="16" as="geometry" />
        </mxCell>
        <mxCell id="oqFgftesJ9Iaq0mxswxZ-41" value="BL2.RR" style="text;html=1;strokeColor=none;fillColor=none;align=center;verticalAlign=middle;whiteSpace=wrap;rounded=0;fontFamily=Helvetica;fontSize=11;fontColor=default;" vertex="1" parent="1">
          <mxGeometry x="289" y="842" width="40" height="16" as="geometry" />
        </mxCell>
        <mxCell id="oqFgftesJ9Iaq0mxswxZ-42" value="BL2" style="text;html=1;strokeColor=none;fillColor=none;align=center;verticalAlign=middle;whiteSpace=wrap;rounded=0;fontFamily=Helvetica;fontSize=11;fontColor=default;" vertex="1" parent="1">
          <mxGeometry x="952" y="852" width="47" height="13" as="geometry" />
        </mxCell>
        <mxCell id="oqFgftesJ9Iaq0mxswxZ-43" value="BL2.AR" style="text;html=1;strokeColor=none;fillColor=none;align=center;verticalAlign=middle;whiteSpace=wrap;rounded=0;fontFamily=Helvetica;fontSize=11;fontColor=default;" vertex="1" parent="1">
          <mxGeometry x="229" y="840" width="47" height="18" as="geometry" />
        </mxCell>
        <mxCell id="oqFgftesJ9Iaq0mxswxZ-44" value="BL1" style="text;html=1;strokeColor=none;fillColor=none;align=center;verticalAlign=middle;whiteSpace=wrap;rounded=0;fontFamily=Helvetica;fontSize=11;fontColor=default;" vertex="1" parent="1">
          <mxGeometry x="344" y="785" width="40" height="18" as="geometry" />
        </mxCell>
        <mxCell id="oqFgftesJ9Iaq0mxswxZ-45" value="EH3" style="text;html=1;strokeColor=none;fillColor=none;align=center;verticalAlign=middle;whiteSpace=wrap;rounded=0;fontFamily=Helvetica;fontSize=11;fontColor=default;" vertex="1" parent="1">
          <mxGeometry x="399" y="785" width="40" height="17" as="geometry" />
        </mxCell>
        <mxCell id="oqFgftesJ9Iaq0mxswxZ-46" value="TR" style="text;html=1;strokeColor=none;fillColor=none;align=center;verticalAlign=middle;whiteSpace=wrap;rounded=0;fontFamily=Helvetica;fontSize=11;fontColor=default;" vertex="1" parent="1">
          <mxGeometry x="231" y="928" width="40" height="11" as="geometry" />
        </mxCell>
        <mxCell id="oqFgftesJ9Iaq0mxswxZ-47" value="DIR" style="text;html=1;strokeColor=none;fillColor=none;align=center;verticalAlign=middle;whiteSpace=wrap;rounded=0;fontFamily=Helvetica;fontSize=11;fontColor=default;" vertex="1" parent="1">
          <mxGeometry x="287" y="929" width="40" height="10" as="geometry" />
        </mxCell>
        <mxCell id="oqFgftesJ9Iaq0mxswxZ-48" value="FP.RR" style="text;html=1;strokeColor=none;fillColor=none;align=center;verticalAlign=middle;whiteSpace=wrap;rounded=0;fontFamily=Helvetica;fontSize=11;fontColor=default;" vertex="1" parent="1">
          <mxGeometry x="288" y="985" width="40" height="9" as="geometry" />
        </mxCell>
        <mxCell id="oqFgftesJ9Iaq0mxswxZ-49" value="FP" style="text;html=1;strokeColor=none;fillColor=none;align=center;verticalAlign=middle;whiteSpace=wrap;rounded=0;fontFamily=Helvetica;fontSize=11;fontColor=default;" vertex="1" parent="1">
          <mxGeometry x="954" y="991" width="47" height="13" as="geometry" />
        </mxCell>
        <mxCell id="oqFgftesJ9Iaq0mxswxZ-50" value="FP.AR" style="text;html=1;strokeColor=none;fillColor=none;align=center;verticalAlign=middle;whiteSpace=wrap;rounded=0;fontFamily=Helvetica;fontSize=11;fontColor=default;" vertex="1" parent="1">
          <mxGeometry x="228" y="983" width="47" height="13" as="geometry" />
        </mxCell>
        <mxCell id="oqFgftesJ9Iaq0mxswxZ-51" value="BL1" style="text;html=1;strokeColor=none;fillColor=none;align=center;verticalAlign=middle;whiteSpace=wrap;rounded=0;fontFamily=Helvetica;fontSize=11;fontColor=default;" vertex="1" parent="1">
          <mxGeometry x="343" y="928" width="40" height="12" as="geometry" />
        </mxCell>
        <mxCell id="oqFgftesJ9Iaq0mxswxZ-52" value="EH3" style="text;html=1;strokeColor=none;fillColor=none;align=center;verticalAlign=middle;whiteSpace=wrap;rounded=0;fontFamily=Helvetica;fontSize=11;fontColor=default;" vertex="1" parent="1">
          <mxGeometry x="399" y="929" width="40" height="11" as="geometry" />
        </mxCell>
        <mxCell id="oqFgftesJ9Iaq0mxswxZ-53" value="TR" style="text;html=1;strokeColor=none;fillColor=none;align=center;verticalAlign=middle;whiteSpace=wrap;rounded=0;fontFamily=Helvetica;fontSize=11;fontColor=default;" vertex="1" parent="1">
          <mxGeometry x="231" y="1069" width="40" height="10" as="geometry" />
        </mxCell>
        <mxCell id="oqFgftesJ9Iaq0mxswxZ-54" value="DIR" style="text;html=1;strokeColor=none;fillColor=none;align=center;verticalAlign=middle;whiteSpace=wrap;rounded=0;fontFamily=Helvetica;fontSize=11;fontColor=default;" vertex="1" parent="1">
          <mxGeometry x="287" y="1069" width="40" height="9" as="geometry" />
        </mxCell>
        <mxCell id="oqFgftesJ9Iaq0mxswxZ-55" value="FP1" style="text;html=1;strokeColor=none;fillColor=none;align=center;verticalAlign=middle;whiteSpace=wrap;rounded=0;fontFamily=Helvetica;fontSize=11;fontColor=default;" vertex="1" parent="1">
          <mxGeometry x="952" y="1076" width="47" height="13" as="geometry" />
        </mxCell>
        <mxCell id="oqFgftesJ9Iaq0mxswxZ-56" value="BL1" style="text;html=1;strokeColor=none;fillColor=none;align=center;verticalAlign=middle;whiteSpace=wrap;rounded=0;fontFamily=Helvetica;fontSize=11;fontColor=default;" vertex="1" parent="1">
          <mxGeometry x="344" y="1068" width="40" height="11" as="geometry" />
        </mxCell>
        <mxCell id="oqFgftesJ9Iaq0mxswxZ-57" value="BL2" style="text;html=1;strokeColor=none;fillColor=none;align=center;verticalAlign=middle;whiteSpace=wrap;rounded=0;fontFamily=Helvetica;fontSize=11;fontColor=default;" vertex="1" parent="1">
          <mxGeometry x="400" y="1070" width="40" height="10" as="geometry" />
        </mxCell>
        <mxCell id="oqFgftesJ9Iaq0mxswxZ-58" value="TR" style="text;html=1;strokeColor=none;fillColor=none;align=center;verticalAlign=middle;whiteSpace=wrap;rounded=0;fontFamily=Helvetica;fontSize=11;fontColor=default;" vertex="1" parent="1">
          <mxGeometry x="231" y="1125" width="40" height="9" as="geometry" />
        </mxCell>
        <mxCell id="oqFgftesJ9Iaq0mxswxZ-59" value="DIR" style="text;html=1;strokeColor=none;fillColor=none;align=center;verticalAlign=middle;whiteSpace=wrap;rounded=0;fontFamily=Helvetica;fontSize=11;fontColor=default;" vertex="1" parent="1">
          <mxGeometry x="287" y="1126" width="40" height="8" as="geometry" />
        </mxCell>
        <mxCell id="oqFgftesJ9Iaq0mxswxZ-60" value="FP2.RR" style="text;html=1;strokeColor=none;fillColor=none;align=center;verticalAlign=middle;whiteSpace=wrap;rounded=0;fontFamily=Helvetica;fontSize=11;fontColor=default;" vertex="1" parent="1">
          <mxGeometry x="289" y="1181" width="40" height="9" as="geometry" />
        </mxCell>
        <mxCell id="oqFgftesJ9Iaq0mxswxZ-61" value="FP2" style="text;html=1;strokeColor=none;fillColor=none;align=center;verticalAlign=middle;whiteSpace=wrap;rounded=0;fontFamily=Helvetica;fontSize=11;fontColor=default;" vertex="1" parent="1">
          <mxGeometry x="953" y="1188" width="47" height="13" as="geometry" />
        </mxCell>
        <mxCell id="oqFgftesJ9Iaq0mxswxZ-62" value="FP2.AR" style="text;html=1;strokeColor=none;fillColor=none;align=center;verticalAlign=middle;whiteSpace=wrap;rounded=0;fontFamily=Helvetica;fontSize=11;fontColor=default;" vertex="1" parent="1">
          <mxGeometry x="230" y="1181" width="47" height="8" as="geometry" />
        </mxCell>
        <mxCell id="oqFgftesJ9Iaq0mxswxZ-63" value="BL1" style="text;html=1;strokeColor=none;fillColor=none;align=center;verticalAlign=middle;whiteSpace=wrap;rounded=0;fontFamily=Helvetica;fontSize=11;fontColor=default;" vertex="1" parent="1">
          <mxGeometry x="344" y="1125" width="40" height="10" as="geometry" />
        </mxCell>
        <mxCell id="oqFgftesJ9Iaq0mxswxZ-64" value="RLMR-M" style="text;html=1;strokeColor=none;fillColor=none;align=center;verticalAlign=middle;whiteSpace=wrap;rounded=0;fontFamily=Helvetica;fontSize=11;fontColor=default;" vertex="1" parent="1">
          <mxGeometry x="393" y="1126" width="52" height="9" as="geometry" />
        </mxCell>
        <mxCell id="oqFgftesJ9Iaq0mxswxZ-65" value="RLMRA-RR" style="text;html=1;strokeColor=none;fillColor=none;align=center;verticalAlign=middle;whiteSpace=wrap;rounded=0;fontFamily=Helvetica;fontSize=11;fontColor=default;" vertex="1" parent="1">
          <mxGeometry x="445" y="1126" width="68" height="9" as="geometry" />
        </mxCell>
        <mxCell id="oqFgftesJ9Iaq0mxswxZ-66" value="EH3" style="text;html=1;strokeColor=none;fillColor=none;align=center;verticalAlign=middle;whiteSpace=wrap;rounded=0;fontFamily=Helvetica;fontSize=11;fontColor=default;" vertex="1" parent="1">
          <mxGeometry x="568" y="1125" width="40" height="9" as="geometry" />
        </mxCell>
        <mxCell id="oqFgftesJ9Iaq0mxswxZ-67" value="FP1" style="text;html=1;strokeColor=none;fillColor=none;align=center;verticalAlign=middle;whiteSpace=wrap;rounded=0;fontFamily=Helvetica;fontSize=11;fontColor=default;" vertex="1" parent="1">
          <mxGeometry x="679" y="1125" width="40" height="9" as="geometry" />
        </mxCell>
        <mxCell id="oqFgftesJ9Iaq0mxswxZ-68" value="EH2" style="text;html=1;strokeColor=none;fillColor=none;align=center;verticalAlign=middle;whiteSpace=wrap;rounded=0;fontFamily=Helvetica;fontSize=11;fontColor=default;" vertex="1" parent="1">
          <mxGeometry x="791" y="1125" width="40" height="9" as="geometry" />
        </mxCell>
        <mxCell id="oqFgftesJ9Iaq0mxswxZ-69" value="EH1" style="text;html=1;strokeColor=none;fillColor=none;align=center;verticalAlign=middle;whiteSpace=wrap;rounded=0;fontFamily=Helvetica;fontSize=11;fontColor=default;" vertex="1" parent="1">
          <mxGeometry x="735" y="1126" width="40" height="8" as="geometry" />
        </mxCell>
        <mxCell id="oqFgftesJ9Iaq0mxswxZ-70" value="Y1LMR-M" style="text;html=1;strokeColor=none;fillColor=none;align=center;verticalAlign=middle;whiteSpace=wrap;rounded=0;fontFamily=Helvetica;fontSize=11;fontColor=default;" vertex="1" parent="1">
          <mxGeometry x="283" y="1427" width="53" height="20" as="geometry" />
        </mxCell>
        <mxCell id="oqFgftesJ9Iaq0mxswxZ-71" value="Y1LMR-A" style="text;html=1;strokeColor=none;fillColor=none;align=center;verticalAlign=middle;whiteSpace=wrap;rounded=0;fontFamily=Helvetica;fontSize=11;fontColor=default;" vertex="1" parent="1">
          <mxGeometry x="281" y="1472" width="55" height="20" as="geometry" />
        </mxCell>
        <mxCell id="oqFgftesJ9Iaq0mxswxZ-72" value="RLMR-A" style="text;html=1;strokeColor=none;fillColor=none;align=center;verticalAlign=middle;whiteSpace=wrap;rounded=0;fontFamily=Helvetica;fontSize=11;fontColor=default;" vertex="1" parent="1">
          <mxGeometry x="227" y="1906" width="53" height="15" as="geometry" />
        </mxCell>
        <mxCell id="oqFgftesJ9Iaq0mxswxZ-73" value="1" style="text;html=1;strokeColor=none;fillColor=none;align=center;verticalAlign=middle;whiteSpace=wrap;rounded=0;fontFamily=Helvetica;fontSize=11;fontColor=default;" vertex="1" parent="1">
          <mxGeometry x="170" y="368" width="20" height="20" as="geometry" />
        </mxCell>
        <mxCell id="oqFgftesJ9Iaq0mxswxZ-74" value="2" style="text;html=1;strokeColor=none;fillColor=none;align=center;verticalAlign=middle;whiteSpace=wrap;rounded=0;fontFamily=Helvetica;fontSize=11;fontColor=default;" vertex="1" parent="1">
          <mxGeometry x="170" y="429" width="21" height="16" as="geometry" />
        </mxCell>
        <mxCell id="oqFgftesJ9Iaq0mxswxZ-75" value="" style="endArrow=none;html=1;rounded=0;" edge="1" parent="1">
          <mxGeometry width="50" height="50" relative="1" as="geometry">
            <mxPoint x="195" y="448" as="sourcePoint" />
            <mxPoint x="1007" y="448" as="targetPoint" />
          </mxGeometry>
        </mxCell>
        <mxCell id="oqFgftesJ9Iaq0mxswxZ-76" value="" style="endArrow=none;html=1;rounded=0;labelBackgroundColor=default;fontFamily=Helvetica;fontSize=11;fontColor=default;startSize=3;endSize=3;sourcePerimeterSpacing=0;strokeColor=default;shape=connector;jumpStyle=none;jumpSize=6;" edge="1" parent="1">
          <mxGeometry width="50" height="50" relative="1" as="geometry">
            <mxPoint x="943" y="446.5" as="sourcePoint" />
            <mxPoint x="1006" y="447" as="targetPoint" />
            <Array as="points">
              <mxPoint x="943" y="425.5" />
              <mxPoint x="1006" y="425.5" />
            </Array>
          </mxGeometry>
        </mxCell>
        <mxCell id="oqFgftesJ9Iaq0mxswxZ-77" value="" style="verticalLabelPosition=bottom;html=1;verticalAlign=top;align=center;shape=mxgraph.floorplan.windowBow;strokeWidth=1;fontSize=11;direction=west;" vertex="1" parent="1">
          <mxGeometry x="240" y="392.5" width="21" height="11" as="geometry" />
        </mxCell>
        <mxCell id="oqFgftesJ9Iaq0mxswxZ-78" value="" style="verticalLabelPosition=bottom;html=1;verticalAlign=top;align=center;shape=mxgraph.floorplan.windowBow;strokeWidth=1;fontSize=11;direction=west;" vertex="1" parent="1">
          <mxGeometry x="295" y="392.5" width="21" height="11" as="geometry" />
        </mxCell>
        <mxCell id="oqFgftesJ9Iaq0mxswxZ-79" value="" style="verticalLabelPosition=bottom;html=1;verticalAlign=top;align=center;shape=mxgraph.floorplan.windowBow;strokeWidth=1;fontSize=11;direction=west;" vertex="1" parent="1">
          <mxGeometry x="352" y="392.5" width="21" height="11" as="geometry" />
        </mxCell>
        <mxCell id="oqFgftesJ9Iaq0mxswxZ-80" value="" style="verticalLabelPosition=bottom;html=1;verticalAlign=top;align=center;shape=mxgraph.floorplan.windowBow;strokeWidth=1;fontSize=11;direction=west;" vertex="1" parent="1">
          <mxGeometry x="408" y="392.5" width="21" height="11" as="geometry" />
        </mxCell>
        <mxCell id="oqFgftesJ9Iaq0mxswxZ-81" value="" style="verticalLabelPosition=bottom;html=1;verticalAlign=top;align=center;shape=mxgraph.floorplan.windowBow;strokeWidth=1;fontSize=11;direction=west;" vertex="1" parent="1">
          <mxGeometry x="464" y="392.5" width="21" height="11" as="geometry" />
        </mxCell>
        <mxCell id="oqFgftesJ9Iaq0mxswxZ-82" value="" style="verticalLabelPosition=bottom;html=1;verticalAlign=top;align=center;shape=mxgraph.floorplan.windowBow;strokeWidth=1;fontSize=11;direction=west;" vertex="1" parent="1">
          <mxGeometry x="520" y="392.5" width="21" height="11" as="geometry" />
        </mxCell>
        <mxCell id="oqFgftesJ9Iaq0mxswxZ-83" value="" style="verticalLabelPosition=bottom;html=1;verticalAlign=top;align=center;shape=mxgraph.floorplan.windowBow;strokeWidth=1;fontSize=11;direction=west;" vertex="1" parent="1">
          <mxGeometry x="688" y="392.5" width="21" height="11" as="geometry" />
        </mxCell>
        <mxCell id="oqFgftesJ9Iaq0mxswxZ-84" value="" style="verticalLabelPosition=bottom;html=1;verticalAlign=top;align=center;shape=mxgraph.floorplan.windowBow;strokeWidth=1;fontSize=11;direction=west;" vertex="1" parent="1">
          <mxGeometry x="744" y="392.5" width="21" height="11" as="geometry" />
        </mxCell>
        <mxCell id="oqFgftesJ9Iaq0mxswxZ-85" value="" style="verticalLabelPosition=bottom;html=1;verticalAlign=top;align=center;shape=mxgraph.floorplan.windowBow;strokeWidth=1;fontSize=11;direction=west;" vertex="1" parent="1">
          <mxGeometry x="800" y="392.5" width="21" height="11" as="geometry" />
        </mxCell>
        <mxCell id="oqFgftesJ9Iaq0mxswxZ-86" value="" style="verticalLabelPosition=bottom;html=1;verticalAlign=top;align=center;shape=mxgraph.floorplan.windowBow;strokeWidth=1;fontSize=11;direction=east;" vertex="1" parent="1">
          <mxGeometry x="240" y="436.5" width="21" height="11" as="geometry" />
        </mxCell>
        <mxCell id="oqFgftesJ9Iaq0mxswxZ-87" value="" style="endArrow=none;html=1;rounded=0;" edge="1" parent="1">
          <mxGeometry width="50" height="50" relative="1" as="geometry">
            <mxPoint x="195" y="504" as="sourcePoint" />
            <mxPoint x="1007" y="504" as="targetPoint" />
          </mxGeometry>
        </mxCell>
        <mxCell id="oqFgftesJ9Iaq0mxswxZ-88" value="" style="endArrow=none;html=1;rounded=0;labelBackgroundColor=default;fontFamily=Helvetica;fontSize=11;fontColor=default;startSize=3;endSize=3;sourcePerimeterSpacing=0;strokeColor=default;shape=connector;jumpStyle=none;jumpSize=6;" edge="1" parent="1">
          <mxGeometry width="50" height="50" relative="1" as="geometry">
            <mxPoint x="923" y="504" as="sourcePoint" />
            <mxPoint x="1006" y="504" as="targetPoint" />
            <Array as="points">
              <mxPoint x="923" y="476" />
              <mxPoint x="1006" y="475.5" />
            </Array>
          </mxGeometry>
        </mxCell>
        <mxCell id="oqFgftesJ9Iaq0mxswxZ-89" value="" style="verticalLabelPosition=bottom;html=1;verticalAlign=top;align=center;shape=mxgraph.floorplan.windowBow;strokeWidth=1;fontSize=11;direction=west;" vertex="1" parent="1">
          <mxGeometry x="240" y="503.5" width="21" height="11" as="geometry" />
        </mxCell>
        <mxCell id="oqFgftesJ9Iaq0mxswxZ-90" value="" style="verticalLabelPosition=bottom;html=1;verticalAlign=top;align=center;shape=mxgraph.floorplan.windowBow;strokeWidth=1;fontSize=11;direction=east;" vertex="1" parent="1">
          <mxGeometry x="296" y="493.5" width="21" height="11" as="geometry" />
        </mxCell>
        <mxCell id="oqFgftesJ9Iaq0mxswxZ-91" value="" style="verticalLabelPosition=bottom;html=1;verticalAlign=top;align=center;shape=mxgraph.floorplan.windowBow;strokeWidth=1;fontSize=11;direction=west;" vertex="1" parent="1">
          <mxGeometry x="352" y="503.5" width="21" height="11" as="geometry" />
        </mxCell>
        <mxCell id="oqFgftesJ9Iaq0mxswxZ-92" value="" style="verticalLabelPosition=bottom;html=1;verticalAlign=top;align=center;shape=mxgraph.floorplan.windowBow;strokeWidth=1;fontSize=11;direction=west;" vertex="1" parent="1">
          <mxGeometry x="464" y="504.5" width="21" height="11" as="geometry" />
        </mxCell>
        <mxCell id="oqFgftesJ9Iaq0mxswxZ-93" value="" style="verticalLabelPosition=bottom;html=1;verticalAlign=top;align=center;shape=mxgraph.floorplan.windowBow;strokeWidth=1;fontSize=11;direction=west;" vertex="1" parent="1">
          <mxGeometry x="520" y="504.5" width="21" height="11" as="geometry" />
        </mxCell>
        <mxCell id="oqFgftesJ9Iaq0mxswxZ-94" value="" style="verticalLabelPosition=bottom;html=1;verticalAlign=top;align=center;shape=mxgraph.floorplan.windowBow;strokeWidth=1;fontSize=11;direction=west;" vertex="1" parent="1">
          <mxGeometry x="576" y="504.5" width="21" height="11" as="geometry" />
        </mxCell>
        <mxCell id="oqFgftesJ9Iaq0mxswxZ-95" value="" style="verticalLabelPosition=bottom;html=1;verticalAlign=top;align=center;shape=mxgraph.floorplan.windowBow;strokeWidth=1;fontSize=11;direction=west;" vertex="1" parent="1">
          <mxGeometry x="632" y="504.5" width="21" height="11" as="geometry" />
        </mxCell>
        <mxCell id="oqFgftesJ9Iaq0mxswxZ-96" value="" style="verticalLabelPosition=bottom;html=1;verticalAlign=top;align=center;shape=mxgraph.floorplan.windowBow;strokeWidth=1;fontSize=11;direction=east;" vertex="1" parent="1">
          <mxGeometry x="464" y="535.5" width="21" height="11" as="geometry" />
        </mxCell>
        <mxCell id="oqFgftesJ9Iaq0mxswxZ-97" value="" style="endArrow=none;html=1;rounded=0;" edge="1" parent="1">
          <mxGeometry width="50" height="50" relative="1" as="geometry">
            <mxPoint x="195" y="588" as="sourcePoint" />
            <mxPoint x="1007" y="588" as="targetPoint" />
          </mxGeometry>
        </mxCell>
        <mxCell id="oqFgftesJ9Iaq0mxswxZ-98" value="" style="endArrow=none;html=1;rounded=0;labelBackgroundColor=default;fontFamily=Helvetica;fontSize=11;fontColor=default;startSize=3;endSize=3;sourcePerimeterSpacing=0;strokeColor=default;shape=connector;jumpStyle=none;jumpSize=6;" edge="1" parent="1">
          <mxGeometry width="50" height="50" relative="1" as="geometry">
            <mxPoint x="942.9999999999998" y="586.5" as="sourcePoint" />
            <mxPoint x="1006.0000000000002" y="587" as="targetPoint" />
            <Array as="points">
              <mxPoint x="943" y="565.5" />
              <mxPoint x="1006" y="565.5" />
            </Array>
          </mxGeometry>
        </mxCell>
        <mxCell id="oqFgftesJ9Iaq0mxswxZ-99" value="" style="verticalLabelPosition=bottom;html=1;verticalAlign=top;align=center;shape=mxgraph.floorplan.windowBow;strokeWidth=1;fontSize=11;direction=east;" vertex="1" parent="1">
          <mxGeometry x="296" y="576.5" width="21" height="11" as="geometry" />
        </mxCell>
        <mxCell id="oqFgftesJ9Iaq0mxswxZ-100" value="" style="verticalLabelPosition=bottom;html=1;verticalAlign=top;align=center;shape=mxgraph.floorplan.windowBow;strokeWidth=1;fontSize=11;direction=west;" vertex="1" parent="1">
          <mxGeometry x="464" y="587.5" width="21" height="11" as="geometry" />
        </mxCell>
        <mxCell id="oqFgftesJ9Iaq0mxswxZ-101" value="" style="verticalLabelPosition=bottom;html=1;verticalAlign=top;align=center;shape=mxgraph.floorplan.windowBow;strokeWidth=1;fontSize=11;direction=east;" vertex="1" parent="1">
          <mxGeometry x="464" y="619.5" width="21" height="11" as="geometry" />
        </mxCell>
        <mxCell id="oqFgftesJ9Iaq0mxswxZ-102" value="" style="verticalLabelPosition=bottom;html=1;verticalAlign=top;align=center;shape=mxgraph.floorplan.windowBow;strokeWidth=1;fontSize=11;direction=west;" vertex="1" parent="1">
          <mxGeometry x="576" y="588.5" width="21" height="11" as="geometry" />
        </mxCell>
        <mxCell id="oqFgftesJ9Iaq0mxswxZ-103" value="" style="endArrow=none;html=1;rounded=0;" edge="1" parent="1">
          <mxGeometry width="50" height="50" relative="1" as="geometry">
            <mxPoint x="195" y="671.9999999999999" as="sourcePoint" />
            <mxPoint x="1007" y="671.9999999999999" as="targetPoint" />
          </mxGeometry>
        </mxCell>
        <mxCell id="oqFgftesJ9Iaq0mxswxZ-104" value="" style="verticalLabelPosition=bottom;html=1;verticalAlign=top;align=center;shape=mxgraph.floorplan.windowBow;strokeWidth=1;fontSize=11;direction=east;" vertex="1" parent="1">
          <mxGeometry x="240" y="660.5" width="21" height="11" as="geometry" />
        </mxCell>
        <mxCell id="oqFgftesJ9Iaq0mxswxZ-105" value="" style="verticalLabelPosition=bottom;html=1;verticalAlign=top;align=center;shape=mxgraph.floorplan.windowBow;strokeWidth=1;fontSize=11;direction=west;" vertex="1" parent="1">
          <mxGeometry x="296" y="671.5" width="21" height="11" as="geometry" />
        </mxCell>
        <mxCell id="oqFgftesJ9Iaq0mxswxZ-106" value="" style="endArrow=none;html=1;rounded=0;" edge="1" parent="1">
          <mxGeometry width="50" height="50" relative="1" as="geometry">
            <mxPoint x="195" y="726.9999999999998" as="sourcePoint" />
            <mxPoint x="1007" y="726.9999999999998" as="targetPoint" />
          </mxGeometry>
        </mxCell>
        <mxCell id="oqFgftesJ9Iaq0mxswxZ-107" value="" style="endArrow=none;html=1;rounded=0;labelBackgroundColor=default;fontFamily=Helvetica;fontSize=11;fontColor=default;startSize=3;endSize=3;sourcePerimeterSpacing=0;strokeColor=default;shape=connector;jumpStyle=none;jumpSize=6;" edge="1" parent="1">
          <mxGeometry width="50" height="50" relative="1" as="geometry">
            <mxPoint x="942.9999999999998" y="725.5" as="sourcePoint" />
            <mxPoint x="1006.0000000000002" y="726.0000000000001" as="targetPoint" />
            <Array as="points">
              <mxPoint x="943" y="704.5" />
              <mxPoint x="1006" y="704.5" />
            </Array>
          </mxGeometry>
        </mxCell>
        <mxCell id="oqFgftesJ9Iaq0mxswxZ-108" value="" style="verticalLabelPosition=bottom;html=1;verticalAlign=top;align=center;shape=mxgraph.floorplan.windowBow;strokeWidth=1;fontSize=11;direction=east;" vertex="1" parent="1">
          <mxGeometry x="240" y="715.5" width="21" height="11" as="geometry" />
        </mxCell>
        <mxCell id="oqFgftesJ9Iaq0mxswxZ-109" value="" style="verticalLabelPosition=bottom;html=1;verticalAlign=top;align=center;shape=mxgraph.floorplan.windowBow;strokeWidth=1;fontSize=11;direction=east;" vertex="1" parent="1">
          <mxGeometry x="296" y="715.5" width="21" height="11" as="geometry" />
        </mxCell>
        <mxCell id="oqFgftesJ9Iaq0mxswxZ-110" value="" style="endArrow=none;html=1;rounded=0;" edge="1" parent="1">
          <mxGeometry width="50" height="50" relative="1" as="geometry">
            <mxPoint x="195" y="811.9999999999998" as="sourcePoint" />
            <mxPoint x="1007" y="811.9999999999998" as="targetPoint" />
          </mxGeometry>
        </mxCell>
        <mxCell id="oqFgftesJ9Iaq0mxswxZ-111" value="" style="verticalLabelPosition=bottom;html=1;verticalAlign=top;align=center;shape=mxgraph.floorplan.windowBow;strokeWidth=1;fontSize=11;direction=east;" vertex="1" parent="1">
          <mxGeometry x="240" y="800.5" width="21" height="11" as="geometry" />
        </mxCell>
        <mxCell id="oqFgftesJ9Iaq0mxswxZ-112" value="" style="verticalLabelPosition=bottom;html=1;verticalAlign=top;align=center;shape=mxgraph.floorplan.windowBow;strokeWidth=1;fontSize=11;direction=west;" vertex="1" parent="1">
          <mxGeometry x="296" y="812" width="21" height="11" as="geometry" />
        </mxCell>
        <mxCell id="oqFgftesJ9Iaq0mxswxZ-113" value="" style="verticalLabelPosition=bottom;html=1;verticalAlign=top;align=center;shape=mxgraph.floorplan.windowBow;strokeWidth=1;fontSize=11;direction=east;" vertex="1" parent="1">
          <mxGeometry x="352" y="800.5" width="21" height="11" as="geometry" />
        </mxCell>
        <mxCell id="oqFgftesJ9Iaq0mxswxZ-114" value="" style="verticalLabelPosition=bottom;html=1;verticalAlign=top;align=center;shape=mxgraph.floorplan.windowBow;strokeWidth=1;fontSize=11;direction=east;" vertex="1" parent="1">
          <mxGeometry x="408" y="800.5" width="21" height="11" as="geometry" />
        </mxCell>
        <mxCell id="oqFgftesJ9Iaq0mxswxZ-115" value="" style="endArrow=none;html=1;rounded=0;" edge="1" parent="1">
          <mxGeometry width="50" height="50" relative="1" as="geometry">
            <mxPoint x="195" y="867.9999999999998" as="sourcePoint" />
            <mxPoint x="1007" y="867.9999999999998" as="targetPoint" />
          </mxGeometry>
        </mxCell>
        <mxCell id="oqFgftesJ9Iaq0mxswxZ-116" value="" style="endArrow=none;html=1;rounded=0;labelBackgroundColor=default;fontFamily=Helvetica;fontSize=11;fontColor=default;startSize=3;endSize=3;sourcePerimeterSpacing=0;strokeColor=default;shape=connector;jumpStyle=none;jumpSize=6;" edge="1" parent="1">
          <mxGeometry width="50" height="50" relative="1" as="geometry">
            <mxPoint x="942.9999999999998" y="866.5" as="sourcePoint" />
            <mxPoint x="1006.0000000000002" y="867" as="targetPoint" />
            <Array as="points">
              <mxPoint x="943" y="845.5" />
              <mxPoint x="1006" y="845.5" />
            </Array>
          </mxGeometry>
        </mxCell>
        <mxCell id="oqFgftesJ9Iaq0mxswxZ-117" value="" style="verticalLabelPosition=bottom;html=1;verticalAlign=top;align=center;shape=mxgraph.floorplan.windowBow;strokeWidth=1;fontSize=11;direction=east;" vertex="1" parent="1">
          <mxGeometry x="296" y="856.5" width="21" height="11" as="geometry" />
        </mxCell>
        <mxCell id="oqFgftesJ9Iaq0mxswxZ-118" value="" style="verticalLabelPosition=bottom;html=1;verticalAlign=top;align=center;shape=mxgraph.floorplan.windowBow;strokeWidth=1;fontSize=11;direction=east;" vertex="1" parent="1">
          <mxGeometry x="241" y="856.5" width="21" height="11" as="geometry" />
        </mxCell>
        <mxCell id="oqFgftesJ9Iaq0mxswxZ-119" value="" style="endArrow=none;html=1;rounded=0;" edge="1" parent="1">
          <mxGeometry width="50" height="50" relative="1" as="geometry">
            <mxPoint x="195" y="951.9999999999998" as="sourcePoint" />
            <mxPoint x="1007" y="951.9999999999998" as="targetPoint" />
          </mxGeometry>
        </mxCell>
        <mxCell id="oqFgftesJ9Iaq0mxswxZ-120" value="" style="verticalLabelPosition=bottom;html=1;verticalAlign=top;align=center;shape=mxgraph.floorplan.windowBow;strokeWidth=1;fontSize=11;direction=east;" vertex="1" parent="1">
          <mxGeometry x="240" y="940.5" width="21" height="11" as="geometry" />
        </mxCell>
        <mxCell id="oqFgftesJ9Iaq0mxswxZ-121" value="" style="verticalLabelPosition=bottom;html=1;verticalAlign=top;align=center;shape=mxgraph.floorplan.windowBow;strokeWidth=1;fontSize=11;direction=west;" vertex="1" parent="1">
          <mxGeometry x="296" y="952" width="21" height="11" as="geometry" />
        </mxCell>
        <mxCell id="oqFgftesJ9Iaq0mxswxZ-122" value="" style="verticalLabelPosition=bottom;html=1;verticalAlign=top;align=center;shape=mxgraph.floorplan.windowBow;strokeWidth=1;fontSize=11;direction=east;" vertex="1" parent="1">
          <mxGeometry x="352" y="940.5" width="21" height="11" as="geometry" />
        </mxCell>
        <mxCell id="oqFgftesJ9Iaq0mxswxZ-123" value="" style="verticalLabelPosition=bottom;html=1;verticalAlign=top;align=center;shape=mxgraph.floorplan.windowBow;strokeWidth=1;fontSize=11;direction=west;" vertex="1" parent="1">
          <mxGeometry x="408" y="952" width="21" height="11" as="geometry" />
        </mxCell>
        <mxCell id="oqFgftesJ9Iaq0mxswxZ-124" value="" style="endArrow=none;html=1;rounded=0;" edge="1" parent="1">
          <mxGeometry width="50" height="50" relative="1" as="geometry">
            <mxPoint x="195" y="1007.9999999999998" as="sourcePoint" />
            <mxPoint x="1007" y="1007.9999999999998" as="targetPoint" />
          </mxGeometry>
        </mxCell>
        <mxCell id="oqFgftesJ9Iaq0mxswxZ-125" value="" style="endArrow=none;html=1;rounded=0;labelBackgroundColor=default;fontFamily=Helvetica;fontSize=11;fontColor=default;startSize=3;endSize=3;sourcePerimeterSpacing=0;strokeColor=default;shape=connector;jumpStyle=none;jumpSize=6;" edge="1" parent="1">
          <mxGeometry width="50" height="50" relative="1" as="geometry">
            <mxPoint x="942.9999999999998" y="1006.5" as="sourcePoint" />
            <mxPoint x="1006.0000000000002" y="1007" as="targetPoint" />
            <Array as="points">
              <mxPoint x="943" y="985.5" />
              <mxPoint x="1006" y="985.5" />
            </Array>
          </mxGeometry>
        </mxCell>
        <mxCell id="oqFgftesJ9Iaq0mxswxZ-126" value="" style="verticalLabelPosition=bottom;html=1;verticalAlign=top;align=center;shape=mxgraph.floorplan.windowBow;strokeWidth=1;fontSize=11;direction=east;" vertex="1" parent="1">
          <mxGeometry x="296" y="996.5" width="21" height="11" as="geometry" />
        </mxCell>
        <mxCell id="oqFgftesJ9Iaq0mxswxZ-127" value="" style="verticalLabelPosition=bottom;html=1;verticalAlign=top;align=center;shape=mxgraph.floorplan.windowBow;strokeWidth=1;fontSize=11;direction=east;" vertex="1" parent="1">
          <mxGeometry x="241" y="996.5" width="21" height="11" as="geometry" />
        </mxCell>
        <mxCell id="oqFgftesJ9Iaq0mxswxZ-128" value="" style="endArrow=none;html=1;rounded=0;" edge="1" parent="1">
          <mxGeometry width="50" height="50" relative="1" as="geometry">
            <mxPoint x="195" y="1091.9999999999998" as="sourcePoint" />
            <mxPoint x="1007" y="1091.9999999999998" as="targetPoint" />
          </mxGeometry>
        </mxCell>
        <mxCell id="oqFgftesJ9Iaq0mxswxZ-129" value="" style="endArrow=none;html=1;rounded=0;labelBackgroundColor=default;fontFamily=Helvetica;fontSize=11;fontColor=default;startSize=3;endSize=3;sourcePerimeterSpacing=0;strokeColor=default;shape=connector;jumpStyle=none;jumpSize=6;" edge="1" parent="1">
          <mxGeometry width="50" height="50" relative="1" as="geometry">
            <mxPoint x="942.9999999999998" y="1090.5" as="sourcePoint" />
            <mxPoint x="1006.0000000000002" y="1091" as="targetPoint" />
            <Array as="points">
              <mxPoint x="943" y="1069.5" />
              <mxPoint x="1006" y="1069.5" />
            </Array>
          </mxGeometry>
        </mxCell>
        <mxCell id="oqFgftesJ9Iaq0mxswxZ-130" value="" style="verticalLabelPosition=bottom;html=1;verticalAlign=top;align=center;shape=mxgraph.floorplan.windowBow;strokeWidth=1;fontSize=11;direction=east;" vertex="1" parent="1">
          <mxGeometry x="240" y="1080.5" width="21" height="11" as="geometry" />
        </mxCell>
        <mxCell id="oqFgftesJ9Iaq0mxswxZ-131" value="" style="verticalLabelPosition=bottom;html=1;verticalAlign=top;align=center;shape=mxgraph.floorplan.windowBow;strokeWidth=1;fontSize=11;direction=west;" vertex="1" parent="1">
          <mxGeometry x="296" y="1093" width="21" height="11" as="geometry" />
        </mxCell>
        <mxCell id="oqFgftesJ9Iaq0mxswxZ-132" value="" style="verticalLabelPosition=bottom;html=1;verticalAlign=top;align=center;shape=mxgraph.floorplan.windowBow;strokeWidth=1;fontSize=11;direction=east;" vertex="1" parent="1">
          <mxGeometry x="352" y="1080.5" width="21" height="11" as="geometry" />
        </mxCell>
        <mxCell id="oqFgftesJ9Iaq0mxswxZ-133" value="" style="verticalLabelPosition=bottom;html=1;verticalAlign=top;align=center;shape=mxgraph.floorplan.windowBow;strokeWidth=1;fontSize=11;direction=east;" vertex="1" parent="1">
          <mxGeometry x="408" y="1080.5" width="21" height="11" as="geometry" />
        </mxCell>
        <mxCell id="oqFgftesJ9Iaq0mxswxZ-134" value="" style="endArrow=none;html=1;rounded=0;" edge="1" parent="1">
          <mxGeometry width="50" height="50" relative="1" as="geometry">
            <mxPoint x="195" y="1147.9999999999998" as="sourcePoint" />
            <mxPoint x="1007" y="1147.9999999999998" as="targetPoint" />
          </mxGeometry>
        </mxCell>
        <mxCell id="oqFgftesJ9Iaq0mxswxZ-135" value="" style="verticalLabelPosition=bottom;html=1;verticalAlign=top;align=center;shape=mxgraph.floorplan.windowBow;strokeWidth=1;fontSize=11;direction=east;" vertex="1" parent="1">
          <mxGeometry x="240" y="1136.5" width="21" height="11" as="geometry" />
        </mxCell>
        <mxCell id="oqFgftesJ9Iaq0mxswxZ-136" value="" style="verticalLabelPosition=bottom;html=1;verticalAlign=top;align=center;shape=mxgraph.floorplan.windowBow;strokeWidth=1;fontSize=11;direction=west;" vertex="1" parent="1">
          <mxGeometry x="296" y="1148" width="21" height="11" as="geometry" />
        </mxCell>
        <mxCell id="oqFgftesJ9Iaq0mxswxZ-137" value="" style="verticalLabelPosition=bottom;html=1;verticalAlign=top;align=center;shape=mxgraph.floorplan.windowBow;strokeWidth=1;fontSize=11;direction=east;" vertex="1" parent="1">
          <mxGeometry x="352" y="1136.5" width="21" height="11" as="geometry" />
        </mxCell>
        <mxCell id="oqFgftesJ9Iaq0mxswxZ-138" value="" style="verticalLabelPosition=bottom;html=1;verticalAlign=top;align=center;shape=mxgraph.floorplan.windowBow;strokeWidth=1;fontSize=11;direction=west;" vertex="1" parent="1">
          <mxGeometry x="408" y="1148" width="21" height="11" as="geometry" />
        </mxCell>
        <mxCell id="oqFgftesJ9Iaq0mxswxZ-139" value="" style="verticalLabelPosition=bottom;html=1;verticalAlign=top;align=center;shape=mxgraph.floorplan.windowBow;strokeWidth=1;fontSize=11;direction=west;" vertex="1" parent="1">
          <mxGeometry x="464" y="1148" width="21" height="11" as="geometry" />
        </mxCell>
        <mxCell id="oqFgftesJ9Iaq0mxswxZ-140" value="" style="verticalLabelPosition=bottom;html=1;verticalAlign=top;align=center;shape=mxgraph.floorplan.windowBow;strokeWidth=1;fontSize=11;direction=east;" vertex="1" parent="1">
          <mxGeometry x="576" y="1136.5" width="21" height="11" as="geometry" />
        </mxCell>
        <mxCell id="oqFgftesJ9Iaq0mxswxZ-141" value="" style="verticalLabelPosition=bottom;html=1;verticalAlign=top;align=center;shape=mxgraph.floorplan.windowBow;strokeWidth=1;fontSize=11;direction=east;" vertex="1" parent="1">
          <mxGeometry x="688" y="1136.5" width="21" height="11" as="geometry" />
        </mxCell>
        <mxCell id="oqFgftesJ9Iaq0mxswxZ-142" value="" style="verticalLabelPosition=bottom;html=1;verticalAlign=top;align=center;shape=mxgraph.floorplan.windowBow;strokeWidth=1;fontSize=11;direction=west;" vertex="1" parent="1">
          <mxGeometry x="744" y="1148" width="21" height="11" as="geometry" />
        </mxCell>
        <mxCell id="oqFgftesJ9Iaq0mxswxZ-143" value="" style="verticalLabelPosition=bottom;html=1;verticalAlign=top;align=center;shape=mxgraph.floorplan.windowBow;strokeWidth=1;fontSize=11;direction=east;" vertex="1" parent="1">
          <mxGeometry x="800" y="1136.5" width="21" height="11" as="geometry" />
        </mxCell>
        <mxCell id="oqFgftesJ9Iaq0mxswxZ-144" value="" style="endArrow=none;html=1;rounded=0;" edge="1" parent="1">
          <mxGeometry width="50" height="50" relative="1" as="geometry">
            <mxPoint x="195" y="1203.9999999999998" as="sourcePoint" />
            <mxPoint x="1007" y="1203.9999999999998" as="targetPoint" />
          </mxGeometry>
        </mxCell>
        <mxCell id="oqFgftesJ9Iaq0mxswxZ-145" value="" style="endArrow=none;html=1;rounded=0;labelBackgroundColor=default;fontFamily=Helvetica;fontSize=11;fontColor=default;startSize=3;endSize=3;sourcePerimeterSpacing=0;strokeColor=default;shape=connector;jumpStyle=none;jumpSize=6;" edge="1" parent="1">
          <mxGeometry width="50" height="50" relative="1" as="geometry">
            <mxPoint x="942.9999999999998" y="1202.5" as="sourcePoint" />
            <mxPoint x="1006.0000000000002" y="1203" as="targetPoint" />
            <Array as="points">
              <mxPoint x="943" y="1181.5" />
              <mxPoint x="1006" y="1181.5" />
            </Array>
          </mxGeometry>
        </mxCell>
        <mxCell id="oqFgftesJ9Iaq0mxswxZ-146" value="" style="verticalLabelPosition=bottom;html=1;verticalAlign=top;align=center;shape=mxgraph.floorplan.windowBow;strokeWidth=1;fontSize=11;direction=east;" vertex="1" parent="1">
          <mxGeometry x="296" y="1192.5" width="21" height="11" as="geometry" />
        </mxCell>
        <mxCell id="oqFgftesJ9Iaq0mxswxZ-147" value="" style="verticalLabelPosition=bottom;html=1;verticalAlign=top;align=center;shape=mxgraph.floorplan.windowBow;strokeWidth=1;fontSize=11;direction=east;" vertex="1" parent="1">
          <mxGeometry x="240" y="1192.5" width="21" height="11" as="geometry" />
        </mxCell>
        <mxCell id="oqFgftesJ9Iaq0mxswxZ-148" value="TR" style="text;html=1;strokeColor=none;fillColor=none;align=center;verticalAlign=middle;whiteSpace=wrap;rounded=0;fontFamily=Helvetica;fontSize=11;fontColor=default;" vertex="1" parent="1">
          <mxGeometry x="232" y="1266" width="40" height="9" as="geometry" />
        </mxCell>
        <mxCell id="oqFgftesJ9Iaq0mxswxZ-149" value="DIR" style="text;html=1;strokeColor=none;fillColor=none;align=center;verticalAlign=middle;whiteSpace=wrap;rounded=0;fontFamily=Helvetica;fontSize=11;fontColor=default;" vertex="1" parent="1">
          <mxGeometry x="288" y="1267" width="40" height="8" as="geometry" />
        </mxCell>
        <mxCell id="oqFgftesJ9Iaq0mxswxZ-150" value="FP3.RR" style="text;html=1;strokeColor=none;fillColor=none;align=center;verticalAlign=middle;whiteSpace=wrap;rounded=0;fontFamily=Helvetica;fontSize=11;fontColor=default;" vertex="1" parent="1">
          <mxGeometry x="290" y="1323" width="40" height="9" as="geometry" />
        </mxCell>
        <mxCell id="oqFgftesJ9Iaq0mxswxZ-151" value="FP3" style="text;html=1;strokeColor=none;fillColor=none;align=center;verticalAlign=middle;whiteSpace=wrap;rounded=0;fontFamily=Helvetica;fontSize=11;fontColor=default;" vertex="1" parent="1">
          <mxGeometry x="954" y="1329" width="47" height="13" as="geometry" />
        </mxCell>
        <mxCell id="oqFgftesJ9Iaq0mxswxZ-152" value="FP3.AR" style="text;html=1;strokeColor=none;fillColor=none;align=center;verticalAlign=middle;whiteSpace=wrap;rounded=0;fontFamily=Helvetica;fontSize=11;fontColor=default;" vertex="1" parent="1">
          <mxGeometry x="229" y="1323" width="47" height="8" as="geometry" />
        </mxCell>
        <mxCell id="oqFgftesJ9Iaq0mxswxZ-153" value="BL1" style="text;html=1;strokeColor=none;fillColor=none;align=center;verticalAlign=middle;whiteSpace=wrap;rounded=0;fontFamily=Helvetica;fontSize=11;fontColor=default;" vertex="1" parent="1">
          <mxGeometry x="345" y="1266" width="40" height="10" as="geometry" />
        </mxCell>
        <mxCell id="oqFgftesJ9Iaq0mxswxZ-154" value="RLMR-M" style="text;html=1;strokeColor=none;fillColor=none;align=center;verticalAlign=middle;whiteSpace=wrap;rounded=0;fontFamily=Helvetica;fontSize=11;fontColor=default;" vertex="1" parent="1">
          <mxGeometry x="394" y="1267" width="52" height="9" as="geometry" />
        </mxCell>
        <mxCell id="oqFgftesJ9Iaq0mxswxZ-155" value="RLMRA-RR" style="text;html=1;strokeColor=none;fillColor=none;align=center;verticalAlign=middle;whiteSpace=wrap;rounded=0;fontFamily=Helvetica;fontSize=11;fontColor=default;" vertex="1" parent="1">
          <mxGeometry x="446" y="1267" width="68" height="9" as="geometry" />
        </mxCell>
        <mxCell id="oqFgftesJ9Iaq0mxswxZ-156" value="EH3" style="text;html=1;strokeColor=none;fillColor=none;align=center;verticalAlign=middle;whiteSpace=wrap;rounded=0;fontFamily=Helvetica;fontSize=11;fontColor=default;" vertex="1" parent="1">
          <mxGeometry x="569" y="1266" width="40" height="9" as="geometry" />
        </mxCell>
        <mxCell id="oqFgftesJ9Iaq0mxswxZ-157" value="FP1" style="text;html=1;strokeColor=none;fillColor=none;align=center;verticalAlign=middle;whiteSpace=wrap;rounded=0;fontFamily=Helvetica;fontSize=11;fontColor=default;" vertex="1" parent="1">
          <mxGeometry x="680" y="1266" width="40" height="9" as="geometry" />
        </mxCell>
        <mxCell id="oqFgftesJ9Iaq0mxswxZ-158" value="EH2" style="text;html=1;strokeColor=none;fillColor=none;align=center;verticalAlign=middle;whiteSpace=wrap;rounded=0;fontFamily=Helvetica;fontSize=11;fontColor=default;" vertex="1" parent="1">
          <mxGeometry x="792" y="1266" width="40" height="9" as="geometry" />
        </mxCell>
        <mxCell id="oqFgftesJ9Iaq0mxswxZ-159" value="EH1" style="text;html=1;strokeColor=none;fillColor=none;align=center;verticalAlign=middle;whiteSpace=wrap;rounded=0;fontFamily=Helvetica;fontSize=11;fontColor=default;" vertex="1" parent="1">
          <mxGeometry x="736" y="1267" width="40" height="8" as="geometry" />
        </mxCell>
        <mxCell id="oqFgftesJ9Iaq0mxswxZ-160" value="" style="endArrow=none;html=1;rounded=0;" edge="1" parent="1">
          <mxGeometry width="50" height="50" relative="1" as="geometry">
            <mxPoint x="196" y="1288.9999999999998" as="sourcePoint" />
            <mxPoint x="1008" y="1288.9999999999998" as="targetPoint" />
          </mxGeometry>
        </mxCell>
        <mxCell id="oqFgftesJ9Iaq0mxswxZ-161" value="" style="verticalLabelPosition=bottom;html=1;verticalAlign=top;align=center;shape=mxgraph.floorplan.windowBow;strokeWidth=1;fontSize=11;direction=east;" vertex="1" parent="1">
          <mxGeometry x="241" y="1277.5" width="21" height="11" as="geometry" />
        </mxCell>
        <mxCell id="oqFgftesJ9Iaq0mxswxZ-162" value="" style="verticalLabelPosition=bottom;html=1;verticalAlign=top;align=center;shape=mxgraph.floorplan.windowBow;strokeWidth=1;fontSize=11;direction=west;" vertex="1" parent="1">
          <mxGeometry x="297" y="1289" width="21" height="11" as="geometry" />
        </mxCell>
        <mxCell id="oqFgftesJ9Iaq0mxswxZ-163" value="" style="verticalLabelPosition=bottom;html=1;verticalAlign=top;align=center;shape=mxgraph.floorplan.windowBow;strokeWidth=1;fontSize=11;direction=east;" vertex="1" parent="1">
          <mxGeometry x="353" y="1277.5" width="21" height="11" as="geometry" />
        </mxCell>
        <mxCell id="oqFgftesJ9Iaq0mxswxZ-164" value="" style="verticalLabelPosition=bottom;html=1;verticalAlign=top;align=center;shape=mxgraph.floorplan.windowBow;strokeWidth=1;fontSize=11;direction=west;" vertex="1" parent="1">
          <mxGeometry x="409" y="1289" width="21" height="11" as="geometry" />
        </mxCell>
        <mxCell id="oqFgftesJ9Iaq0mxswxZ-165" value="" style="verticalLabelPosition=bottom;html=1;verticalAlign=top;align=center;shape=mxgraph.floorplan.windowBow;strokeWidth=1;fontSize=11;direction=west;" vertex="1" parent="1">
          <mxGeometry x="465" y="1289" width="21" height="11" as="geometry" />
        </mxCell>
        <mxCell id="oqFgftesJ9Iaq0mxswxZ-166" value="" style="verticalLabelPosition=bottom;html=1;verticalAlign=top;align=center;shape=mxgraph.floorplan.windowBow;strokeWidth=1;fontSize=11;direction=east;" vertex="1" parent="1">
          <mxGeometry x="577" y="1277.5" width="21" height="11" as="geometry" />
        </mxCell>
        <mxCell id="oqFgftesJ9Iaq0mxswxZ-167" value="" style="verticalLabelPosition=bottom;html=1;verticalAlign=top;align=center;shape=mxgraph.floorplan.windowBow;strokeWidth=1;fontSize=11;direction=east;" vertex="1" parent="1">
          <mxGeometry x="689" y="1277.5" width="21" height="11" as="geometry" />
        </mxCell>
        <mxCell id="oqFgftesJ9Iaq0mxswxZ-168" value="" style="verticalLabelPosition=bottom;html=1;verticalAlign=top;align=center;shape=mxgraph.floorplan.windowBow;strokeWidth=1;fontSize=11;direction=east;" vertex="1" parent="1">
          <mxGeometry x="745" y="1278" width="21" height="11" as="geometry" />
        </mxCell>
        <mxCell id="oqFgftesJ9Iaq0mxswxZ-169" value="" style="verticalLabelPosition=bottom;html=1;verticalAlign=top;align=center;shape=mxgraph.floorplan.windowBow;strokeWidth=1;fontSize=11;direction=west;" vertex="1" parent="1">
          <mxGeometry x="801" y="1288.5" width="21" height="11" as="geometry" />
        </mxCell>
        <mxCell id="oqFgftesJ9Iaq0mxswxZ-170" value="" style="endArrow=none;html=1;rounded=0;" edge="1" parent="1">
          <mxGeometry width="50" height="50" relative="1" as="geometry">
            <mxPoint x="196" y="1344.9999999999998" as="sourcePoint" />
            <mxPoint x="1008" y="1344.9999999999998" as="targetPoint" />
          </mxGeometry>
        </mxCell>
        <mxCell id="oqFgftesJ9Iaq0mxswxZ-171" value="" style="endArrow=none;html=1;rounded=0;labelBackgroundColor=default;fontFamily=Helvetica;fontSize=11;fontColor=default;startSize=3;endSize=3;sourcePerimeterSpacing=0;strokeColor=default;shape=connector;jumpStyle=none;jumpSize=6;" edge="1" parent="1">
          <mxGeometry width="50" height="50" relative="1" as="geometry">
            <mxPoint x="943.9999999999998" y="1343.5" as="sourcePoint" />
            <mxPoint x="1007.0000000000002" y="1344" as="targetPoint" />
            <Array as="points">
              <mxPoint x="944" y="1322.5" />
              <mxPoint x="1007" y="1322.5" />
            </Array>
          </mxGeometry>
        </mxCell>
        <mxCell id="oqFgftesJ9Iaq0mxswxZ-172" value="" style="verticalLabelPosition=bottom;html=1;verticalAlign=top;align=center;shape=mxgraph.floorplan.windowBow;strokeWidth=1;fontSize=11;direction=east;" vertex="1" parent="1">
          <mxGeometry x="297" y="1333.5" width="21" height="11" as="geometry" />
        </mxCell>
        <mxCell id="oqFgftesJ9Iaq0mxswxZ-173" value="" style="verticalLabelPosition=bottom;html=1;verticalAlign=top;align=center;shape=mxgraph.floorplan.windowBow;strokeWidth=1;fontSize=11;direction=east;" vertex="1" parent="1">
          <mxGeometry x="240" y="1334.5" width="21" height="11" as="geometry" />
        </mxCell>
        <mxCell id="oqFgftesJ9Iaq0mxswxZ-174" value="" style="endArrow=none;html=1;rounded=0;" edge="1" parent="1">
          <mxGeometry width="50" height="50" relative="1" as="geometry">
            <mxPoint x="251" y="1457" as="sourcePoint" />
            <mxPoint x="363" y="1457" as="targetPoint" />
            <Array as="points">
              <mxPoint x="251" y="1499" />
              <mxPoint x="363" y="1499" />
            </Array>
          </mxGeometry>
        </mxCell>
        <mxCell id="oqFgftesJ9Iaq0mxswxZ-175" value="" style="endArrow=none;html=1;rounded=0;" edge="1" parent="1">
          <mxGeometry width="50" height="50" relative="1" as="geometry">
            <mxPoint x="195" y="1455.9999999999998" as="sourcePoint" />
            <mxPoint x="1006.9999999999998" y="1455.9999999999998" as="targetPoint" />
          </mxGeometry>
        </mxCell>
        <mxCell id="oqFgftesJ9Iaq0mxswxZ-176" value="" style="verticalLabelPosition=bottom;html=1;verticalAlign=top;align=center;shape=mxgraph.floorplan.windowBow;strokeWidth=1;fontSize=11;direction=east;" vertex="1" parent="1">
          <mxGeometry x="296" y="1444.5" width="21" height="11" as="geometry" />
        </mxCell>
        <mxCell id="oqFgftesJ9Iaq0mxswxZ-177" value="" style="verticalLabelPosition=bottom;html=1;verticalAlign=top;align=center;shape=mxgraph.floorplan.windowBow;strokeWidth=1;fontSize=11;direction=east;" vertex="1" parent="1">
          <mxGeometry x="296" y="1487.5" width="21" height="11" as="geometry" />
        </mxCell>
        <mxCell id="oqFgftesJ9Iaq0mxswxZ-178" value="YLMR-M" style="text;html=1;strokeColor=none;fillColor=none;align=center;verticalAlign=middle;whiteSpace=wrap;rounded=0;fontFamily=Helvetica;fontSize=11;fontColor=default;" vertex="1" parent="1">
          <mxGeometry x="283" y="1511" width="53" height="20" as="geometry" />
        </mxCell>
        <mxCell id="oqFgftesJ9Iaq0mxswxZ-179" value="YLMR-A" style="text;html=1;strokeColor=none;fillColor=none;align=center;verticalAlign=middle;whiteSpace=wrap;rounded=0;fontFamily=Helvetica;fontSize=11;fontColor=default;" vertex="1" parent="1">
          <mxGeometry x="281" y="1556" width="55" height="20" as="geometry" />
        </mxCell>
        <mxCell id="oqFgftesJ9Iaq0mxswxZ-180" value="" style="endArrow=none;html=1;rounded=0;" edge="1" parent="1">
          <mxGeometry width="50" height="50" relative="1" as="geometry">
            <mxPoint x="251" y="1540.9999999999998" as="sourcePoint" />
            <mxPoint x="363" y="1540.9999999999998" as="targetPoint" />
            <Array as="points">
              <mxPoint x="251" y="1583" />
              <mxPoint x="363" y="1583" />
            </Array>
          </mxGeometry>
        </mxCell>
        <mxCell id="oqFgftesJ9Iaq0mxswxZ-181" value="" style="endArrow=none;html=1;rounded=0;" edge="1" parent="1">
          <mxGeometry width="50" height="50" relative="1" as="geometry">
            <mxPoint x="195" y="1539.9999999999995" as="sourcePoint" />
            <mxPoint x="1006.9999999999995" y="1539.9999999999995" as="targetPoint" />
          </mxGeometry>
        </mxCell>
        <mxCell id="oqFgftesJ9Iaq0mxswxZ-182" value="" style="verticalLabelPosition=bottom;html=1;verticalAlign=top;align=center;shape=mxgraph.floorplan.windowBow;strokeWidth=1;fontSize=11;direction=east;" vertex="1" parent="1">
          <mxGeometry x="296" y="1528.5" width="21" height="11" as="geometry" />
        </mxCell>
        <mxCell id="oqFgftesJ9Iaq0mxswxZ-183" value="" style="verticalLabelPosition=bottom;html=1;verticalAlign=top;align=center;shape=mxgraph.floorplan.windowBow;strokeWidth=1;fontSize=11;direction=east;" vertex="1" parent="1">
          <mxGeometry x="296" y="1571.5" width="21" height="11" as="geometry" />
        </mxCell>
        <mxCell id="oqFgftesJ9Iaq0mxswxZ-184" value="GLMR-M" style="text;html=1;strokeColor=none;fillColor=none;align=center;verticalAlign=middle;whiteSpace=wrap;rounded=0;fontFamily=Helvetica;fontSize=11;fontColor=default;" vertex="1" parent="1">
          <mxGeometry x="283" y="1595" width="53" height="20" as="geometry" />
        </mxCell>
        <mxCell id="oqFgftesJ9Iaq0mxswxZ-185" value="GLMR-A" style="text;html=1;strokeColor=none;fillColor=none;align=center;verticalAlign=middle;whiteSpace=wrap;rounded=0;fontFamily=Helvetica;fontSize=11;fontColor=default;" vertex="1" parent="1">
          <mxGeometry x="281" y="1640" width="55" height="20" as="geometry" />
        </mxCell>
        <mxCell id="oqFgftesJ9Iaq0mxswxZ-186" value="" style="endArrow=none;html=1;rounded=0;" edge="1" parent="1">
          <mxGeometry width="50" height="50" relative="1" as="geometry">
            <mxPoint x="251" y="1624.9999999999995" as="sourcePoint" />
            <mxPoint x="363" y="1624.9999999999995" as="targetPoint" />
            <Array as="points">
              <mxPoint x="251" y="1667" />
              <mxPoint x="363" y="1667" />
            </Array>
          </mxGeometry>
        </mxCell>
        <mxCell id="oqFgftesJ9Iaq0mxswxZ-187" value="" style="endArrow=none;html=1;rounded=0;" edge="1" parent="1">
          <mxGeometry width="50" height="50" relative="1" as="geometry">
            <mxPoint x="195" y="1623.9999999999993" as="sourcePoint" />
            <mxPoint x="1006.9999999999995" y="1623.9999999999993" as="targetPoint" />
          </mxGeometry>
        </mxCell>
        <mxCell id="oqFgftesJ9Iaq0mxswxZ-188" value="" style="verticalLabelPosition=bottom;html=1;verticalAlign=top;align=center;shape=mxgraph.floorplan.windowBow;strokeWidth=1;fontSize=11;direction=east;" vertex="1" parent="1">
          <mxGeometry x="296" y="1612.5" width="21" height="11" as="geometry" />
        </mxCell>
        <mxCell id="oqFgftesJ9Iaq0mxswxZ-189" value="" style="verticalLabelPosition=bottom;html=1;verticalAlign=top;align=center;shape=mxgraph.floorplan.windowBow;strokeWidth=1;fontSize=11;direction=east;" vertex="1" parent="1">
          <mxGeometry x="296" y="1655.5" width="21" height="11" as="geometry" />
        </mxCell>
        <mxCell id="oqFgftesJ9Iaq0mxswxZ-190" value="GE1U.RR" style="text;html=1;strokeColor=none;fillColor=none;align=center;verticalAlign=middle;whiteSpace=wrap;rounded=0;fontFamily=Helvetica;fontSize=11;fontColor=default;" vertex="1" parent="1">
          <mxGeometry x="283" y="1708" width="53" height="20" as="geometry" />
        </mxCell>
        <mxCell id="oqFgftesJ9Iaq0mxswxZ-191" value="GE1U" style="text;html=1;strokeColor=none;fillColor=none;align=center;verticalAlign=middle;whiteSpace=wrap;rounded=0;fontFamily=Helvetica;fontSize=11;fontColor=default;" vertex="1" parent="1">
          <mxGeometry x="952" y="1720" width="47" height="13" as="geometry" />
        </mxCell>
        <mxCell id="oqFgftesJ9Iaq0mxswxZ-192" value="GE1U.AR" style="text;html=1;strokeColor=none;fillColor=none;align=center;verticalAlign=middle;whiteSpace=wrap;rounded=0;fontFamily=Helvetica;fontSize=11;fontColor=default;" vertex="1" parent="1">
          <mxGeometry x="225" y="1708" width="55" height="20" as="geometry" />
        </mxCell>
        <mxCell id="oqFgftesJ9Iaq0mxswxZ-193" value="" style="endArrow=none;html=1;rounded=0;" edge="1" parent="1">
          <mxGeometry width="50" height="50" relative="1" as="geometry">
            <mxPoint x="195" y="1735.999999999999" as="sourcePoint" />
            <mxPoint x="1006.9999999999995" y="1735.999999999999" as="targetPoint" />
          </mxGeometry>
        </mxCell>
        <mxCell id="oqFgftesJ9Iaq0mxswxZ-194" value="" style="endArrow=none;html=1;rounded=0;labelBackgroundColor=default;fontFamily=Helvetica;fontSize=11;fontColor=default;startSize=3;endSize=3;sourcePerimeterSpacing=0;strokeColor=default;shape=connector;jumpStyle=none;jumpSize=6;" edge="1" parent="1">
          <mxGeometry width="50" height="50" relative="1" as="geometry">
            <mxPoint x="942.9999999999998" y="1734.4999999999993" as="sourcePoint" />
            <mxPoint x="1006.0000000000005" y="1735" as="targetPoint" />
            <Array as="points">
              <mxPoint x="943" y="1713.5" />
              <mxPoint x="1006" y="1713.5" />
            </Array>
          </mxGeometry>
        </mxCell>
        <mxCell id="oqFgftesJ9Iaq0mxswxZ-195" value="" style="verticalLabelPosition=bottom;html=1;verticalAlign=top;align=center;shape=mxgraph.floorplan.windowBow;strokeWidth=1;fontSize=11;direction=east;" vertex="1" parent="1">
          <mxGeometry x="296" y="1724.5" width="21" height="11" as="geometry" />
        </mxCell>
        <mxCell id="oqFgftesJ9Iaq0mxswxZ-196" value="" style="verticalLabelPosition=bottom;html=1;verticalAlign=top;align=center;shape=mxgraph.floorplan.windowBow;strokeWidth=1;fontSize=11;direction=east;" vertex="1" parent="1">
          <mxGeometry x="241" y="1724.5" width="21" height="11" as="geometry" />
        </mxCell>
        <mxCell id="oqFgftesJ9Iaq0mxswxZ-197" value="GEU.RR" style="text;html=1;strokeColor=none;fillColor=none;align=center;verticalAlign=middle;whiteSpace=wrap;rounded=0;fontFamily=Helvetica;fontSize=11;fontColor=default;" vertex="1" parent="1">
          <mxGeometry x="283" y="1764" width="53" height="20" as="geometry" />
        </mxCell>
        <mxCell id="oqFgftesJ9Iaq0mxswxZ-198" value="GEU" style="text;html=1;strokeColor=none;fillColor=none;align=center;verticalAlign=middle;whiteSpace=wrap;rounded=0;fontFamily=Helvetica;fontSize=11;fontColor=default;" vertex="1" parent="1">
          <mxGeometry x="952" y="1776" width="47" height="13" as="geometry" />
        </mxCell>
        <mxCell id="oqFgftesJ9Iaq0mxswxZ-199" value="GEU.AR" style="text;html=1;strokeColor=none;fillColor=none;align=center;verticalAlign=middle;whiteSpace=wrap;rounded=0;fontFamily=Helvetica;fontSize=11;fontColor=default;" vertex="1" parent="1">
          <mxGeometry x="225" y="1764" width="55" height="20" as="geometry" />
        </mxCell>
        <mxCell id="oqFgftesJ9Iaq0mxswxZ-200" value="" style="endArrow=none;html=1;rounded=0;" edge="1" parent="1">
          <mxGeometry width="50" height="50" relative="1" as="geometry">
            <mxPoint x="195" y="1791.999999999999" as="sourcePoint" />
            <mxPoint x="1006.9999999999995" y="1791.999999999999" as="targetPoint" />
          </mxGeometry>
        </mxCell>
        <mxCell id="oqFgftesJ9Iaq0mxswxZ-201" value="" style="endArrow=none;html=1;rounded=0;labelBackgroundColor=default;fontFamily=Helvetica;fontSize=11;fontColor=default;startSize=3;endSize=3;sourcePerimeterSpacing=0;strokeColor=default;shape=connector;jumpStyle=none;jumpSize=6;" edge="1" parent="1">
          <mxGeometry width="50" height="50" relative="1" as="geometry">
            <mxPoint x="942.9999999999998" y="1790.499999999999" as="sourcePoint" />
            <mxPoint x="1006.0000000000005" y="1791" as="targetPoint" />
            <Array as="points">
              <mxPoint x="943" y="1769.5" />
              <mxPoint x="1006" y="1769.5" />
            </Array>
          </mxGeometry>
        </mxCell>
        <mxCell id="oqFgftesJ9Iaq0mxswxZ-202" value="" style="verticalLabelPosition=bottom;html=1;verticalAlign=top;align=center;shape=mxgraph.floorplan.windowBow;strokeWidth=1;fontSize=11;direction=east;" vertex="1" parent="1">
          <mxGeometry x="296" y="1780.5" width="21" height="11" as="geometry" />
        </mxCell>
        <mxCell id="oqFgftesJ9Iaq0mxswxZ-203" value="" style="verticalLabelPosition=bottom;html=1;verticalAlign=top;align=center;shape=mxgraph.floorplan.windowBow;strokeWidth=1;fontSize=11;direction=east;" vertex="1" parent="1">
          <mxGeometry x="241" y="1780.5" width="21" height="11" as="geometry" />
        </mxCell>
        <mxCell id="oqFgftesJ9Iaq0mxswxZ-204" value="GNU.RR" style="text;html=1;strokeColor=none;fillColor=none;align=center;verticalAlign=middle;whiteSpace=wrap;rounded=0;fontFamily=Helvetica;fontSize=11;fontColor=default;" vertex="1" parent="1">
          <mxGeometry x="283" y="1820" width="53" height="20" as="geometry" />
        </mxCell>
        <mxCell id="oqFgftesJ9Iaq0mxswxZ-205" value="GNU" style="text;html=1;strokeColor=none;fillColor=none;align=center;verticalAlign=middle;whiteSpace=wrap;rounded=0;fontFamily=Helvetica;fontSize=11;fontColor=default;" vertex="1" parent="1">
          <mxGeometry x="952" y="1832" width="47" height="13" as="geometry" />
        </mxCell>
        <mxCell id="oqFgftesJ9Iaq0mxswxZ-206" value="GNU.AR" style="text;html=1;strokeColor=none;fillColor=none;align=center;verticalAlign=middle;whiteSpace=wrap;rounded=0;fontFamily=Helvetica;fontSize=11;fontColor=default;" vertex="1" parent="1">
          <mxGeometry x="224" y="1820" width="55" height="20" as="geometry" />
        </mxCell>
        <mxCell id="oqFgftesJ9Iaq0mxswxZ-207" value="" style="endArrow=none;html=1;rounded=0;" edge="1" parent="1">
          <mxGeometry width="50" height="50" relative="1" as="geometry">
            <mxPoint x="195" y="1847.999999999999" as="sourcePoint" />
            <mxPoint x="1006.9999999999995" y="1847.999999999999" as="targetPoint" />
          </mxGeometry>
        </mxCell>
        <mxCell id="oqFgftesJ9Iaq0mxswxZ-208" value="" style="endArrow=none;html=1;rounded=0;labelBackgroundColor=default;fontFamily=Helvetica;fontSize=11;fontColor=default;startSize=3;endSize=3;sourcePerimeterSpacing=0;strokeColor=default;shape=connector;jumpStyle=none;jumpSize=6;" edge="1" parent="1">
          <mxGeometry width="50" height="50" relative="1" as="geometry">
            <mxPoint x="942.9999999999998" y="1846.499999999999" as="sourcePoint" />
            <mxPoint x="1006.0000000000005" y="1847" as="targetPoint" />
            <Array as="points">
              <mxPoint x="943" y="1825.5" />
              <mxPoint x="1006" y="1825.5" />
            </Array>
          </mxGeometry>
        </mxCell>
        <mxCell id="oqFgftesJ9Iaq0mxswxZ-209" value="" style="verticalLabelPosition=bottom;html=1;verticalAlign=top;align=center;shape=mxgraph.floorplan.windowBow;strokeWidth=1;fontSize=11;direction=east;" vertex="1" parent="1">
          <mxGeometry x="296" y="1836.5" width="21" height="11" as="geometry" />
        </mxCell>
        <mxCell id="oqFgftesJ9Iaq0mxswxZ-210" value="" style="verticalLabelPosition=bottom;html=1;verticalAlign=top;align=center;shape=mxgraph.floorplan.windowBow;strokeWidth=1;fontSize=11;direction=east;" vertex="1" parent="1">
          <mxGeometry x="240" y="1836.5" width="21" height="11" as="geometry" />
        </mxCell>
        <mxCell id="oqFgftesJ9Iaq0mxswxZ-211" value="" style="endArrow=none;html=1;rounded=0;" edge="1" parent="1">
          <mxGeometry width="50" height="50" relative="1" as="geometry">
            <mxPoint x="195" y="1931.999999999999" as="sourcePoint" />
            <mxPoint x="1006.9999999999995" y="1931.999999999999" as="targetPoint" />
          </mxGeometry>
        </mxCell>
        <mxCell id="oqFgftesJ9Iaq0mxswxZ-212" value="" style="verticalLabelPosition=bottom;html=1;verticalAlign=top;align=center;shape=mxgraph.floorplan.windowBow;strokeWidth=1;fontSize=11;direction=east;" vertex="1" parent="1">
          <mxGeometry x="240" y="1920.5" width="21" height="11" as="geometry" />
        </mxCell>
        <mxCell id="oqFgftesJ9Iaq0mxswxZ-213" value="3" style="text;html=1;strokeColor=none;fillColor=none;align=center;verticalAlign=middle;whiteSpace=wrap;rounded=0;fontFamily=Helvetica;fontSize=11;fontColor=default;" vertex="1" parent="1">
          <mxGeometry x="170" y="486" width="21" height="16" as="geometry" />
        </mxCell>
        <mxCell id="oqFgftesJ9Iaq0mxswxZ-214" value="4" style="text;html=1;strokeColor=none;fillColor=none;align=center;verticalAlign=middle;whiteSpace=wrap;rounded=0;fontFamily=Helvetica;fontSize=11;fontColor=default;" vertex="1" parent="1">
          <mxGeometry x="170" y="570" width="21" height="16" as="geometry" />
        </mxCell>
        <mxCell id="oqFgftesJ9Iaq0mxswxZ-215" value="5" style="text;html=1;strokeColor=none;fillColor=none;align=center;verticalAlign=middle;whiteSpace=wrap;rounded=0;fontFamily=Helvetica;fontSize=11;fontColor=default;" vertex="1" parent="1">
          <mxGeometry x="170" y="655" width="21" height="16" as="geometry" />
        </mxCell>
        <mxCell id="oqFgftesJ9Iaq0mxswxZ-216" value="6" style="text;html=1;strokeColor=none;fillColor=none;align=center;verticalAlign=middle;whiteSpace=wrap;rounded=0;fontFamily=Helvetica;fontSize=11;fontColor=default;" vertex="1" parent="1">
          <mxGeometry x="170" y="710" width="21" height="16" as="geometry" />
        </mxCell>
        <mxCell id="oqFgftesJ9Iaq0mxswxZ-217" value="7" style="text;html=1;strokeColor=none;fillColor=none;align=center;verticalAlign=middle;whiteSpace=wrap;rounded=0;fontFamily=Helvetica;fontSize=11;fontColor=default;" vertex="1" parent="1">
          <mxGeometry x="170" y="795" width="21" height="16" as="geometry" />
        </mxCell>
        <mxCell id="oqFgftesJ9Iaq0mxswxZ-218" value="8" style="text;html=1;strokeColor=none;fillColor=none;align=center;verticalAlign=middle;whiteSpace=wrap;rounded=0;fontFamily=Helvetica;fontSize=11;fontColor=default;" vertex="1" parent="1">
          <mxGeometry x="170" y="850" width="21" height="16" as="geometry" />
        </mxCell>
        <mxCell id="oqFgftesJ9Iaq0mxswxZ-219" value="9" style="text;html=1;strokeColor=none;fillColor=none;align=center;verticalAlign=middle;whiteSpace=wrap;rounded=0;fontFamily=Helvetica;fontSize=11;fontColor=default;" vertex="1" parent="1">
          <mxGeometry x="170" y="934" width="21" height="16" as="geometry" />
        </mxCell>
        <mxCell id="oqFgftesJ9Iaq0mxswxZ-220" value="10" style="text;html=1;strokeColor=none;fillColor=none;align=center;verticalAlign=middle;whiteSpace=wrap;rounded=0;fontFamily=Helvetica;fontSize=11;fontColor=default;" vertex="1" parent="1">
          <mxGeometry x="170" y="990" width="21" height="16" as="geometry" />
        </mxCell>
        <mxCell id="oqFgftesJ9Iaq0mxswxZ-221" value="11" style="text;html=1;strokeColor=none;fillColor=none;align=center;verticalAlign=middle;whiteSpace=wrap;rounded=0;fontFamily=Helvetica;fontSize=11;fontColor=default;" vertex="1" parent="1">
          <mxGeometry x="170" y="1074" width="21" height="16" as="geometry" />
        </mxCell>
        <mxCell id="oqFgftesJ9Iaq0mxswxZ-222" value="12" style="text;html=1;strokeColor=none;fillColor=none;align=center;verticalAlign=middle;whiteSpace=wrap;rounded=0;fontFamily=Helvetica;fontSize=11;fontColor=default;" vertex="1" parent="1">
          <mxGeometry x="170" y="1130" width="21" height="16" as="geometry" />
        </mxCell>
        <mxCell id="oqFgftesJ9Iaq0mxswxZ-223" value="13" style="text;html=1;strokeColor=none;fillColor=none;align=center;verticalAlign=middle;whiteSpace=wrap;rounded=0;fontFamily=Helvetica;fontSize=11;fontColor=default;" vertex="1" parent="1">
          <mxGeometry x="170" y="1186" width="21" height="16" as="geometry" />
        </mxCell>
        <mxCell id="oqFgftesJ9Iaq0mxswxZ-224" value="14" style="text;html=1;strokeColor=none;fillColor=none;align=center;verticalAlign=middle;whiteSpace=wrap;rounded=0;fontFamily=Helvetica;fontSize=11;fontColor=default;" vertex="1" parent="1">
          <mxGeometry x="170" y="1270" width="21" height="16" as="geometry" />
        </mxCell>
        <mxCell id="oqFgftesJ9Iaq0mxswxZ-225" value="15" style="text;html=1;strokeColor=none;fillColor=none;align=center;verticalAlign=middle;whiteSpace=wrap;rounded=0;fontFamily=Helvetica;fontSize=11;fontColor=default;" vertex="1" parent="1">
          <mxGeometry x="170" y="1326" width="21" height="16" as="geometry" />
        </mxCell>
        <mxCell id="oqFgftesJ9Iaq0mxswxZ-226" value="16" style="text;html=1;strokeColor=none;fillColor=none;align=center;verticalAlign=middle;whiteSpace=wrap;rounded=0;fontFamily=Helvetica;fontSize=11;fontColor=default;" vertex="1" parent="1">
          <mxGeometry x="170" y="1438" width="21" height="16" as="geometry" />
        </mxCell>
        <mxCell id="oqFgftesJ9Iaq0mxswxZ-227" value="17" style="text;html=1;strokeColor=none;fillColor=none;align=center;verticalAlign=middle;whiteSpace=wrap;rounded=0;fontFamily=Helvetica;fontSize=11;fontColor=default;" vertex="1" parent="1">
          <mxGeometry x="170" y="1522" width="21" height="16" as="geometry" />
        </mxCell>
        <mxCell id="oqFgftesJ9Iaq0mxswxZ-228" value="18" style="text;html=1;strokeColor=none;fillColor=none;align=center;verticalAlign=middle;whiteSpace=wrap;rounded=0;fontFamily=Helvetica;fontSize=11;fontColor=default;" vertex="1" parent="1">
          <mxGeometry x="170" y="1606" width="21" height="16" as="geometry" />
        </mxCell>
        <mxCell id="oqFgftesJ9Iaq0mxswxZ-229" value="19" style="text;html=1;strokeColor=none;fillColor=none;align=center;verticalAlign=middle;whiteSpace=wrap;rounded=0;fontFamily=Helvetica;fontSize=11;fontColor=default;" vertex="1" parent="1">
          <mxGeometry x="170" y="1718" width="21" height="16" as="geometry" />
        </mxCell>
        <mxCell id="oqFgftesJ9Iaq0mxswxZ-230" value="20" style="text;html=1;strokeColor=none;fillColor=none;align=center;verticalAlign=middle;whiteSpace=wrap;rounded=0;fontFamily=Helvetica;fontSize=11;fontColor=default;" vertex="1" parent="1">
          <mxGeometry x="170" y="1774" width="21" height="16" as="geometry" />
        </mxCell>
        <mxCell id="oqFgftesJ9Iaq0mxswxZ-231" value="21" style="text;html=1;strokeColor=none;fillColor=none;align=center;verticalAlign=middle;whiteSpace=wrap;rounded=0;fontFamily=Helvetica;fontSize=11;fontColor=default;" vertex="1" parent="1">
          <mxGeometry x="170" y="1830" width="21" height="16" as="geometry" />
        </mxCell>
        <mxCell id="oqFgftesJ9Iaq0mxswxZ-232" value="22" style="text;html=1;strokeColor=none;fillColor=none;align=center;verticalAlign=middle;whiteSpace=wrap;rounded=0;fontFamily=Helvetica;fontSize=11;fontColor=default;" vertex="1" parent="1">
          <mxGeometry x="170" y="1914" width="21" height="16" as="geometry" />
        </mxCell>
        <mxCell id="oqFgftesJ9Iaq0mxswxZ-233" value="&lt;font style=&quot;font-size: 10px;&quot;&gt;BL1.RR(100)&lt;/font&gt;" style="text;html=1;strokeColor=none;fillColor=none;align=center;verticalAlign=middle;whiteSpace=wrap;rounded=0;fontFamily=Helvetica;fontSize=11;fontColor=default;" vertex="1" parent="1">
          <mxGeometry x="948" y="491" width="47" height="12" as="geometry" />
        </mxCell>
        <mxCell id="oqFgftesJ9Iaq0mxswxZ-234" value="BL1.AR" style="text;html=1;strokeColor=none;fillColor=none;align=center;verticalAlign=middle;whiteSpace=wrap;rounded=0;fontFamily=Helvetica;fontSize=11;fontColor=default;" vertex="1" parent="1">
          <mxGeometry x="233" y="560" width="40" height="17" as="geometry" />
        </mxCell>
        <mxCell id="oqFgftesJ9Iaq0mxswxZ-235" value="" style="verticalLabelPosition=bottom;html=1;verticalAlign=top;align=center;shape=mxgraph.floorplan.windowBow;strokeWidth=1;fontSize=11;direction=east;" vertex="1" parent="1">
          <mxGeometry x="241" y="576.5" width="21" height="11" as="geometry" />
        </mxCell>
        <mxCell id="oqFgftesJ9Iaq0mxswxZ-236" value="&lt;font style=&quot;font-size: 10px;&quot;&gt;PR.AR(0)&lt;/font&gt;" style="text;html=1;strokeColor=none;fillColor=none;align=center;verticalAlign=middle;whiteSpace=wrap;rounded=0;fontFamily=Helvetica;fontSize=11;fontColor=default;" vertex="1" parent="1">
          <mxGeometry x="942" y="365" width="47" height="12" as="geometry" />
        </mxCell>
        <mxCell id="oqFgftesJ9Iaq0mxswxZ-237" value="" style="endArrow=none;html=1;rounded=0;labelBackgroundColor=default;fontFamily=Helvetica;fontSize=11;fontColor=default;startSize=3;endSize=3;sourcePerimeterSpacing=0;strokeColor=default;shape=connector;jumpStyle=none;jumpSize=6;" edge="1" parent="1">
          <mxGeometry width="50" height="50" relative="1" as="geometry">
            <mxPoint x="923" y="391" as="sourcePoint" />
            <mxPoint x="1006" y="391" as="targetPoint" />
            <Array as="points">
              <mxPoint x="923" y="363" />
              <mxPoint x="1006" y="362.5" />
            </Array>
          </mxGeometry>
        </mxCell>
        <mxCell id="oqFgftesJ9Iaq0mxswxZ-238" value="&lt;font style=&quot;font-size: 10px;&quot;&gt;PR.RR(500)&lt;/font&gt;" style="text;html=1;strokeColor=none;fillColor=none;align=center;verticalAlign=middle;whiteSpace=wrap;rounded=0;fontFamily=Helvetica;fontSize=11;fontColor=default;" vertex="1" parent="1">
          <mxGeometry x="948" y="378" width="47" height="12" as="geometry" />
        </mxCell>
        <mxCell id="oqFgftesJ9Iaq0mxswxZ-239" value="PR.RR" style="text;html=1;strokeColor=none;fillColor=none;align=center;verticalAlign=middle;whiteSpace=wrap;rounded=0;fontFamily=Helvetica;fontSize=11;fontColor=default;" vertex="1" parent="1">
          <mxGeometry x="288" y="424" width="40" height="11" as="geometry" />
        </mxCell>
        <mxCell id="oqFgftesJ9Iaq0mxswxZ-240" value="" style="verticalLabelPosition=bottom;html=1;verticalAlign=top;align=center;shape=mxgraph.floorplan.windowBow;strokeWidth=1;fontSize=11;direction=east;" vertex="1" parent="1">
          <mxGeometry x="296" y="436.5" width="21" height="11" as="geometry" />
        </mxCell>
        <mxCell id="oqFgftesJ9Iaq0mxswxZ-241" value="&lt;font style=&quot;&quot;&gt;&lt;span style=&quot;font-size: 11px;&quot;&gt;(relay name).AR(millisecond) - 완동(time delay acting relay)&lt;/span&gt;&lt;br&gt;&lt;span style=&quot;font-size: 11px;&quot;&gt;(relay name)&lt;/span&gt;&lt;span style=&quot;background-color: initial;&quot;&gt;&lt;span style=&quot;font-size: 11px;&quot;&gt;.RR(millisecond) - 완방(time delay release relay)&lt;/span&gt;&lt;/span&gt;&lt;/font&gt;" style="text;html=1;strokeColor=none;fillColor=none;align=left;verticalAlign=middle;whiteSpace=wrap;rounded=0;fontSize=10;" vertex="1" parent="1">
          <mxGeometry x="195" y="320" width="588" height="30" as="geometry" />
        </mxCell>
        <mxCell id="oqFgftesJ9Iaq0mxswxZ-242" value="&lt;font style=&quot;font-size: 10px;&quot;&gt;FMPR.AR(0)&lt;/font&gt;" style="text;html=1;strokeColor=none;fillColor=none;align=center;verticalAlign=middle;whiteSpace=wrap;rounded=0;fontFamily=Helvetica;fontSize=11;fontColor=default;" vertex="1" parent="1">
          <mxGeometry x="938" y="645" width="47" height="12" as="geometry" />
        </mxCell>
        <mxCell id="oqFgftesJ9Iaq0mxswxZ-243" value="" style="endArrow=none;html=1;rounded=0;labelBackgroundColor=default;fontFamily=Helvetica;fontSize=11;fontColor=default;startSize=3;endSize=3;sourcePerimeterSpacing=0;strokeColor=default;shape=connector;jumpStyle=none;jumpSize=6;" edge="1" parent="1">
          <mxGeometry width="50" height="50" relative="1" as="geometry">
            <mxPoint x="923" y="671" as="sourcePoint" />
            <mxPoint x="1006" y="671" as="targetPoint" />
            <Array as="points">
              <mxPoint x="923" y="643" />
              <mxPoint x="1006" y="642.5" />
            </Array>
          </mxGeometry>
        </mxCell>
        <mxCell id="oqFgftesJ9Iaq0mxswxZ-244" value="&lt;font style=&quot;font-size: 10px;&quot;&gt;FMPR.RR(100)&lt;/font&gt;" style="text;html=1;strokeColor=none;fillColor=none;align=center;verticalAlign=middle;whiteSpace=wrap;rounded=0;fontFamily=Helvetica;fontSize=11;fontColor=default;" vertex="1" parent="1">
          <mxGeometry x="944" y="658" width="47" height="12" as="geometry" />
        </mxCell>
        <mxCell id="oqFgftesJ9Iaq0mxswxZ-245" value="&lt;font style=&quot;font-size: 10px;&quot;&gt;BL2.AR(0)&lt;/font&gt;" style="text;html=1;strokeColor=none;fillColor=none;align=center;verticalAlign=middle;whiteSpace=wrap;rounded=0;fontFamily=Helvetica;fontSize=11;fontColor=default;" vertex="1" parent="1">
          <mxGeometry x="938" y="785" width="47" height="12" as="geometry" />
        </mxCell>
        <mxCell id="oqFgftesJ9Iaq0mxswxZ-246" value="" style="endArrow=none;html=1;rounded=0;labelBackgroundColor=default;fontFamily=Helvetica;fontSize=11;fontColor=default;startSize=3;endSize=3;sourcePerimeterSpacing=0;strokeColor=default;shape=connector;jumpStyle=none;jumpSize=6;" edge="1" parent="1">
          <mxGeometry width="50" height="50" relative="1" as="geometry">
            <mxPoint x="923" y="811" as="sourcePoint" />
            <mxPoint x="1006" y="811" as="targetPoint" />
            <Array as="points">
              <mxPoint x="923" y="783" />
              <mxPoint x="1006" y="782.5" />
            </Array>
          </mxGeometry>
        </mxCell>
        <mxCell id="oqFgftesJ9Iaq0mxswxZ-247" value="&lt;font style=&quot;font-size: 10px;&quot;&gt;BL2.RR(500)&lt;/font&gt;" style="text;html=1;strokeColor=none;fillColor=none;align=center;verticalAlign=middle;whiteSpace=wrap;rounded=0;fontFamily=Helvetica;fontSize=11;fontColor=default;" vertex="1" parent="1">
          <mxGeometry x="944" y="798" width="47" height="12" as="geometry" />
        </mxCell>
        <mxCell id="oqFgftesJ9Iaq0mxswxZ-248" value="&lt;font style=&quot;font-size: 10px;&quot;&gt;FP.AR(0)&lt;/font&gt;" style="text;html=1;strokeColor=none;fillColor=none;align=center;verticalAlign=middle;whiteSpace=wrap;rounded=0;fontFamily=Helvetica;fontSize=11;fontColor=default;" vertex="1" parent="1">
          <mxGeometry x="938" y="925" width="47" height="12" as="geometry" />
        </mxCell>
        <mxCell id="oqFgftesJ9Iaq0mxswxZ-249" value="" style="endArrow=none;html=1;rounded=0;labelBackgroundColor=default;fontFamily=Helvetica;fontSize=11;fontColor=default;startSize=3;endSize=3;sourcePerimeterSpacing=0;strokeColor=default;shape=connector;jumpStyle=none;jumpSize=6;" edge="1" parent="1">
          <mxGeometry width="50" height="50" relative="1" as="geometry">
            <mxPoint x="923" y="951" as="sourcePoint" />
            <mxPoint x="1006" y="951" as="targetPoint" />
            <Array as="points">
              <mxPoint x="923" y="923" />
              <mxPoint x="1006" y="922.5" />
            </Array>
          </mxGeometry>
        </mxCell>
        <mxCell id="oqFgftesJ9Iaq0mxswxZ-250" value="&lt;font style=&quot;font-size: 10px;&quot;&gt;FP.RR(100)&lt;/font&gt;" style="text;html=1;strokeColor=none;fillColor=none;align=center;verticalAlign=middle;whiteSpace=wrap;rounded=0;fontFamily=Helvetica;fontSize=11;fontColor=default;" vertex="1" parent="1">
          <mxGeometry x="944" y="938" width="47" height="12" as="geometry" />
        </mxCell>
        <mxCell id="oqFgftesJ9Iaq0mxswxZ-251" value="&lt;font style=&quot;font-size: 10px;&quot;&gt;FP2.AR(0)&lt;/font&gt;" style="text;html=1;strokeColor=none;fillColor=none;align=center;verticalAlign=middle;whiteSpace=wrap;rounded=0;fontFamily=Helvetica;fontSize=11;fontColor=default;" vertex="1" parent="1">
          <mxGeometry x="938" y="1121" width="47" height="12" as="geometry" />
        </mxCell>
        <mxCell id="oqFgftesJ9Iaq0mxswxZ-252" value="" style="endArrow=none;html=1;rounded=0;labelBackgroundColor=default;fontFamily=Helvetica;fontSize=11;fontColor=default;startSize=3;endSize=3;sourcePerimeterSpacing=0;strokeColor=default;shape=connector;jumpStyle=none;jumpSize=6;" edge="1" parent="1">
          <mxGeometry width="50" height="50" relative="1" as="geometry">
            <mxPoint x="923" y="1147" as="sourcePoint" />
            <mxPoint x="1006" y="1147" as="targetPoint" />
            <Array as="points">
              <mxPoint x="923" y="1119" />
              <mxPoint x="1006" y="1118.5" />
            </Array>
          </mxGeometry>
        </mxCell>
        <mxCell id="oqFgftesJ9Iaq0mxswxZ-253" value="&lt;font style=&quot;font-size: 10px;&quot;&gt;FP2.RR(100)&lt;/font&gt;" style="text;html=1;strokeColor=none;fillColor=none;align=center;verticalAlign=middle;whiteSpace=wrap;rounded=0;fontFamily=Helvetica;fontSize=11;fontColor=default;" vertex="1" parent="1">
          <mxGeometry x="944" y="1134" width="47" height="12" as="geometry" />
        </mxCell>
        <mxCell id="oqFgftesJ9Iaq0mxswxZ-254" value="&lt;font style=&quot;font-size: 10px;&quot;&gt;FP3.AR(0)&lt;/font&gt;" style="text;html=1;strokeColor=none;fillColor=none;align=center;verticalAlign=middle;whiteSpace=wrap;rounded=0;fontFamily=Helvetica;fontSize=11;fontColor=default;" vertex="1" parent="1">
          <mxGeometry x="938" y="1262" width="47" height="12" as="geometry" />
        </mxCell>
        <mxCell id="oqFgftesJ9Iaq0mxswxZ-255" value="" style="endArrow=none;html=1;rounded=0;labelBackgroundColor=default;fontFamily=Helvetica;fontSize=11;fontColor=default;startSize=3;endSize=3;sourcePerimeterSpacing=0;strokeColor=default;shape=connector;jumpStyle=none;jumpSize=6;" edge="1" parent="1">
          <mxGeometry width="50" height="50" relative="1" as="geometry">
            <mxPoint x="923" y="1288" as="sourcePoint" />
            <mxPoint x="1006" y="1288" as="targetPoint" />
            <Array as="points">
              <mxPoint x="923" y="1260" />
              <mxPoint x="1006" y="1259.5" />
            </Array>
          </mxGeometry>
        </mxCell>
        <mxCell id="oqFgftesJ9Iaq0mxswxZ-256" value="&lt;font style=&quot;font-size: 10px;&quot;&gt;FP3.RR(100)&lt;/font&gt;" style="text;html=1;strokeColor=none;fillColor=none;align=center;verticalAlign=middle;whiteSpace=wrap;rounded=0;fontFamily=Helvetica;fontSize=11;fontColor=default;" vertex="1" parent="1">
          <mxGeometry x="944" y="1275" width="47" height="12" as="geometry" />
        </mxCell>
        <mxCell id="oqFgftesJ9Iaq0mxswxZ-257" value="&lt;font style=&quot;font-size: 10px;&quot;&gt;GE1U.AR(0)&lt;/font&gt;" style="text;html=1;strokeColor=none;fillColor=none;align=center;verticalAlign=middle;whiteSpace=wrap;rounded=0;fontFamily=Helvetica;fontSize=11;fontColor=default;" vertex="1" parent="1">
          <mxGeometry x="938" y="1429" width="47" height="12" as="geometry" />
        </mxCell>
        <mxCell id="oqFgftesJ9Iaq0mxswxZ-258" value="" style="endArrow=none;html=1;rounded=0;labelBackgroundColor=default;fontFamily=Helvetica;fontSize=11;fontColor=default;startSize=3;endSize=3;sourcePerimeterSpacing=0;strokeColor=default;shape=connector;jumpStyle=none;jumpSize=6;" edge="1" parent="1">
          <mxGeometry width="50" height="50" relative="1" as="geometry">
            <mxPoint x="923" y="1455" as="sourcePoint" />
            <mxPoint x="1006" y="1455" as="targetPoint" />
            <Array as="points">
              <mxPoint x="923" y="1427" />
              <mxPoint x="1006" y="1426.5" />
            </Array>
          </mxGeometry>
        </mxCell>
        <mxCell id="oqFgftesJ9Iaq0mxswxZ-259" value="&lt;font style=&quot;font-size: 10px;&quot;&gt;GE1U.RR(100)&lt;/font&gt;" style="text;html=1;strokeColor=none;fillColor=none;align=center;verticalAlign=middle;whiteSpace=wrap;rounded=0;fontFamily=Helvetica;fontSize=11;fontColor=default;" vertex="1" parent="1">
          <mxGeometry x="944" y="1442" width="47" height="12" as="geometry" />
        </mxCell>
        <mxCell id="oqFgftesJ9Iaq0mxswxZ-260" value="&lt;font style=&quot;font-size: 10px;&quot;&gt;GEU.AR(0)&lt;/font&gt;" style="text;html=1;strokeColor=none;fillColor=none;align=center;verticalAlign=middle;whiteSpace=wrap;rounded=0;fontFamily=Helvetica;fontSize=11;fontColor=default;" vertex="1" parent="1">
          <mxGeometry x="938" y="1513" width="47" height="12" as="geometry" />
        </mxCell>
        <mxCell id="oqFgftesJ9Iaq0mxswxZ-261" value="" style="endArrow=none;html=1;rounded=0;labelBackgroundColor=default;fontFamily=Helvetica;fontSize=11;fontColor=default;startSize=3;endSize=3;sourcePerimeterSpacing=0;strokeColor=default;shape=connector;jumpStyle=none;jumpSize=6;" edge="1" parent="1">
          <mxGeometry width="50" height="50" relative="1" as="geometry">
            <mxPoint x="923" y="1539" as="sourcePoint" />
            <mxPoint x="1006" y="1539" as="targetPoint" />
            <Array as="points">
              <mxPoint x="923" y="1511" />
              <mxPoint x="1006" y="1510.5" />
            </Array>
          </mxGeometry>
        </mxCell>
        <mxCell id="oqFgftesJ9Iaq0mxswxZ-262" value="&lt;font style=&quot;font-size: 10px;&quot;&gt;GEU.RR(100)&lt;/font&gt;" style="text;html=1;strokeColor=none;fillColor=none;align=center;verticalAlign=middle;whiteSpace=wrap;rounded=0;fontFamily=Helvetica;fontSize=11;fontColor=default;" vertex="1" parent="1">
          <mxGeometry x="944" y="1526" width="47" height="12" as="geometry" />
        </mxCell>
        <mxCell id="oqFgftesJ9Iaq0mxswxZ-263" value="&lt;font style=&quot;font-size: 10px;&quot;&gt;GNU.AR(0)&lt;/font&gt;" style="text;html=1;strokeColor=none;fillColor=none;align=center;verticalAlign=middle;whiteSpace=wrap;rounded=0;fontFamily=Helvetica;fontSize=11;fontColor=default;" vertex="1" parent="1">
          <mxGeometry x="938" y="1597" width="47" height="12" as="geometry" />
        </mxCell>
        <mxCell id="oqFgftesJ9Iaq0mxswxZ-264" value="" style="endArrow=none;html=1;rounded=0;labelBackgroundColor=default;fontFamily=Helvetica;fontSize=11;fontColor=default;startSize=3;endSize=3;sourcePerimeterSpacing=0;strokeColor=default;shape=connector;jumpStyle=none;jumpSize=6;" edge="1" parent="1">
          <mxGeometry width="50" height="50" relative="1" as="geometry">
            <mxPoint x="923" y="1623" as="sourcePoint" />
            <mxPoint x="1006" y="1623" as="targetPoint" />
            <Array as="points">
              <mxPoint x="923" y="1595" />
              <mxPoint x="1006" y="1594.5" />
            </Array>
          </mxGeometry>
        </mxCell>
        <mxCell id="oqFgftesJ9Iaq0mxswxZ-265" value="&lt;font style=&quot;font-size: 10px;&quot;&gt;GNU.RR(100)&lt;/font&gt;" style="text;html=1;strokeColor=none;fillColor=none;align=center;verticalAlign=middle;whiteSpace=wrap;rounded=0;fontFamily=Helvetica;fontSize=11;fontColor=default;" vertex="1" parent="1">
          <mxGeometry x="944" y="1610" width="47" height="12" as="geometry" />
        </mxCell>
        <mxCell id="oqFgftesJ9Iaq0mxswxZ-266" value="&lt;font style=&quot;font-size: 10px;&quot;&gt;RLMRA.AR(0)&lt;/font&gt;" style="text;html=1;strokeColor=none;fillColor=none;align=center;verticalAlign=middle;whiteSpace=wrap;rounded=0;fontFamily=Helvetica;fontSize=11;fontColor=default;" vertex="1" parent="1">
          <mxGeometry x="937" y="1905" width="47" height="12" as="geometry" />
        </mxCell>
        <mxCell id="oqFgftesJ9Iaq0mxswxZ-267" value="" style="endArrow=none;html=1;rounded=0;labelBackgroundColor=default;fontFamily=Helvetica;fontSize=11;fontColor=default;startSize=3;endSize=3;sourcePerimeterSpacing=0;strokeColor=default;shape=connector;jumpStyle=none;jumpSize=6;" edge="1" parent="1">
          <mxGeometry width="50" height="50" relative="1" as="geometry">
            <mxPoint x="923" y="1931" as="sourcePoint" />
            <mxPoint x="1006" y="1931" as="targetPoint" />
            <Array as="points">
              <mxPoint x="923" y="1903" />
              <mxPoint x="1006" y="1902.5" />
            </Array>
          </mxGeometry>
        </mxCell>
        <mxCell id="oqFgftesJ9Iaq0mxswxZ-268" value="&lt;font style=&quot;font-size: 10px;&quot;&gt;RLMRA.RR(100)&lt;/font&gt;" style="text;html=1;strokeColor=none;fillColor=none;align=center;verticalAlign=middle;whiteSpace=wrap;rounded=0;fontFamily=Helvetica;fontSize=11;fontColor=default;" vertex="1" parent="1">
          <mxGeometry x="943" y="1918" width="47" height="12" as="geometry" />
        </mxCell>
      </root>
    </mxGraphModel>
  </diagram>
</mxfile>
